<svg xmlns="http://www.w3.org/2000/svg" viewBox="0 0 150 150">
  <defs>
    <style>
      .cls-4{fill:#4c5a78}.cls-5{fill:#d05135}.cls-6{fill:#e06542}.cls-8{fill:#8297cd}
    </style>
  </defs>
  <g id="Layer_2" data-name="Layer 2">
    <g id="veicle">
      <circle cx="75" cy="75" r="75" fill="#f1f1f1"/>
      <ellipse cx="75" cy="133.85" rx="28.85" ry="11.54" fill="#d7d8d8"/>
      <path d="M7.42 113.06l118.22-.06.85-81-113.6-4L2.6 107.58a4.86 4.86 0 004.82 5.48z" fill="#546183"/>
      <path class="cls-4" d="M8.36 110.19l118.21-.06.85-80.91L12.89 28l-9.35 76.71a4.85 4.85 0 004.82 5.48z"/>
      <path class="cls-5" d="M26.21 121.73l115.9.24a6.35 6.35 0 006.33-6.89l-7.37-85.71L12.89 28l7 87.88a6.33 6.33 0 006.32 5.85z"/>
      <path class="cls-6" d="M26.05 117.49l115.9.23a6.33 6.33 0 006.33-6.88l-7.21-81.47L12.89 28l6.85 83.64a6.32 6.32 0 006.31 5.85z"/>
      <circle class="cls-5" cx="30.49" cy="32.03" r="1.7"/>
      <circle class="cls-5" cx="40.63" cy="32.03" r="1.7"/>
      <circle class="cls-5" cx="50.05" cy="32.03" r="1.7"/>
      <circle class="cls-5" cx="59.26" cy="32.03" r="1.7"/>
      <circle class="cls-5" cx="68.54" cy="32.03" r="1.7"/>
      <circle class="cls-5" cx="78.55" cy="32.31" r="1.7"/>
      <circle class="cls-5" cx="87.97" cy="32.57" r="1.7"/>
      <circle class="cls-5" cx="97.86" cy="32.79" r="1.7"/>
      <circle class="cls-5" cx="107.29" cy="32.79" r="1.7"/>
      <circle class="cls-5" cx="117.3" cy="33.11" r="1.7"/>
      <circle class="cls-5" cx="126.49" cy="33.11" r="1.7"/>
      <path class="cls-5" d="M135.55 76.12l1.45 32.2-106.03.57-4.38-35.6 108.96 2.83z"/>
      <path fill="#fff" d="M135.55 76.12l2.67 33.9-107.25-1.13-3.16-33.9 107.74 1.13z"/>
      <path class="cls-5" d="M135.55 76.12l2.67 33.9-107.25-1.13 103.87-.97.71-31.8z"/>
      <path class="cls-8" d="M51.07 60.17a3.42 3.42 0 01-3.48 3.72l-18-.18a3.46 3.46 0 01-3.4-3.13l-1.46-15.92a3.47 3.47 0 013.48-3.78l18.22.2a3.43 3.43 0 013.4 3.18z"/>
      <path d="M50.91 58l-8.43.09a5.45 5.45 0 11-.1-10.89l7.67-.07z" opacity=".5" fill="#fff"/>
      <path d="M92.09 52.16a4.56 4.56 0 010 .51 5.44 5.44 0 01-5.37 4.94L50.91 58l-.86-10.87 36.52-.39a5.45 5.45 0 015.52 5.42z" opacity=".41" fill="#fff"/>
      <path class="cls-6" transform="rotate(-89.4 82.672 90.796)" d="M80.98 35.1h3.46v111.41h-3.46z"/>
      <path class="cls-6" transform="rotate(-4.89 120.237 93.587)" d="M118.43 72.78h3.46v41.62h-3.46z"/>
      <path class="cls-6" transform="rotate(-4.89 102.179 93.402)" d="M100.36 72.59h3.46v41.62h-3.46z"/>
      <path class="cls-6" transform="rotate(-4.89 84.004 93.213)" d="M82.29 72.4h3.46v41.62h-3.46z"/>
      <path class="cls-6" transform="rotate(-4.89 66.058 93.15)" d="M64.22 72.21h3.46v41.62h-3.46z"/>
      <path class="cls-6" transform="rotate(-4.89 47.887 92.844)" d="M46.15 72.02h3.46v41.62h-3.46z"/>
      <path class="cls-8" d="M116.12 86.08a1.08 1.08 0 01-1.12 1.16l-8.71-.09a1.08 1.08 0 01-1-1 1.07 1.07 0 011.07-1.15l8.7.09a1.08 1.08 0 011.06.99zM81.8 105.43a1.07 1.07 0 01-1.08 1.16L72 106.5a1.08 1.08 0 01-1.06-1 1.08 1.08 0 011.06-1.15l8.71.09a1.09 1.09 0 011.09.99zM43.33 79a1.07 1.07 0 01-1.08 1.16l-8.71-.09a1.09 1.09 0 01-1.06-1 1.09 1.09 0 011.08-1.18l8.71.09A1.08 1.08 0 0143.33 79z"/>
      <path d="M19.82 110.19a7 7 0 004.6 6.35 10.55 10.55 0 004.1.32l4.25-.11 17-.29c11.34-.16 22.67-.2 34-.22s22.67.06 34 .22l17 .29 4.25.11a10.55 10.55 0 004.1-.32 7 7 0 004.6-6.35 8 8 0 01-.24 2.12 7.66 7.66 0 01-.86 2 7.24 7.24 0 01-3.32 2.69 6.76 6.76 0 01-2.14.5c-.74.06-1.43 0-2.14.08l-4.25.11-17 .29c-11.33.16-22.67.2-34 .22s-22.66-.06-34-.22l-17-.29-4.25-.12c-.71 0-1.4 0-2.14-.07a6.51 6.51 0 01-2.14-.51 7.08 7.08 0 01-3.31-2.75 7.69 7.69 0 01-.87-2 8 8 0 01-.24-2.05z" fill="#ea8067"/>
      <path class="cls-4" d="M126.45 33.1a.44.44 0 00.4.48.48.48 0 000-.95.45.45 0 00-.4.47z"/>
      <path class="cls-4" d="M126.67 33.1a.23.23 0 00.25.23c1.54-.19 2.74-2.28 2.77-4.92s-1.25-5-2.91-5-3 2.15-3 4.93h.48c0-2.47 1.17-4.47 2.54-4.46s2.46 2 2.44 4.51-1.06 4.28-2.34 4.44a.23.23 0 00-.2.22z"/>
      <path class="cls-4" d="M126.13 34a1.17 1.17 0 01-.38-.86 1.17 1.17 0 011-1.12c.63-.08 1.52-1.47 1.54-3.54s-.89-3.57-1.53-3.58-1.58 1.37-1.61 3.55v.91h-2.32v-.92c0-3.35 1.74-5.86 4-5.84s3.86 2.57 3.82 5.93c0 3.12-1.54 5.56-3.58 5.82h-.15a1.12 1.12 0 01-.79-.35zm.86-.2zM117 33a.46.46 0 00.4.48.44.44 0 00.4-.47.43.43 0 00-.39-.48.44.44 0 00-.41.47z"/>
      <path class="cls-4" d="M117.25 33a.22.22 0 00.25.23c1.54-.19 2.74-2.28 2.77-4.92s-1.25-5-2.91-5-3 2.15-3 4.93h.48c0-2.47 1.17-4.47 2.54-4.45s2.46 2 2.44 4.51-1.06 4.27-2.34 4.44a.21.21 0 00-.2.22z"/>
      <path class="cls-4" d="M116.71 33.85a1.19 1.19 0 01-.38-.87 1.15 1.15 0 011-1.12c.63-.08 1.52-1.47 1.54-3.54s-.89-3.58-1.53-3.59-1.58 1.37-1.61 3.55v.92h-2.32v-.92c0-3.35 1.74-5.86 4-5.84s3.86 2.58 3.82 5.93c0 3.12-1.54 5.57-3.58 5.82h-.15a1.15 1.15 0 01-.79-.34zm.86-.2zM107 32.88a.44.44 0 00.4.48.43.43 0 00.4-.47.44.44 0 00-.39-.48.45.45 0 00-.41.47z"/>
      <path class="cls-4" d="M107.24 32.88a.23.23 0 00.25.23c1.54-.19 2.74-2.28 2.77-4.92 0-2.79-1.25-5-2.92-5s-3 2.15-3 4.93h.48c0-2.47 1.17-4.47 2.54-4.46s2.46 2 2.43 4.51-1 4.28-2.33 4.44a.23.23 0 00-.2.23z"/>
      <path class="cls-4" d="M106.7 33.74a1.13 1.13 0 01-.38-.87 1.16 1.16 0 011-1.13c.62-.08 1.51-1.46 1.54-3.54s-.89-3.57-1.53-3.58-1.59 1.37-1.61 3.55v.91h-2.32v-.92c0-3.35 1.74-5.86 3.95-5.84s3.86 2.57 3.83 5.93c0 3.12-1.54 5.57-3.58 5.82h-.15a1.21 1.21 0 01-.75-.33zm.85-.21zM97.6 32.78a.45.45 0 00.4.48.48.48 0 000-.95.45.45 0 00-.4.47z"/>
      <path class="cls-4" d="M97.81 32.77a.23.23 0 00.26.23c1.54-.19 2.74-2.28 2.77-4.92s-1.25-5-2.92-5-3 2.15-3 4.94h.48c0-2.47 1.17-4.47 2.54-4.45s2.46 2 2.43 4.51-1 4.27-2.34 4.44a.22.22 0 00-.19.22z"/>
      <path class="cls-4" d="M97.28 33.63a1.12 1.12 0 01-.38-.87 1.13 1.13 0 011-1.12c.62-.08 1.51-1.47 1.54-3.54s-.89-3.58-1.53-3.58-1.59 1.34-1.61 3.48v1h-2.32v-1c0-3.36 1.74-5.87 4-5.84s3.86 2.57 3.83 5.92c0 3.12-1.54 5.57-3.58 5.82H98a1.15 1.15 0 01-.72-.27zm.85-.2zM87.71 32.67a.44.44 0 00.39.48.45.45 0 00.41-.47.44.44 0 00-.4-.48.43.43 0 00-.4.47z"/>
      <path class="cls-4" d="M87.92 32.66a.23.23 0 00.25.23c1.55-.19 2.75-2.28 2.83-4.89s-1.3-5-3-5-3 2.15-3 4.93h.49c0-2.47 1.16-4.47 2.53-4.45s2.47 2 2.44 4.51-1.06 4.27-2.34 4.44a.22.22 0 00-.2.22z"/>
      <path class="cls-4" d="M87.39 33.52a1.16 1.16 0 01-.39-.87 1.15 1.15 0 011-1.12c.63-.08 1.52-1.47 1.54-3.54s-.89-3.58-1.53-3.59-1.58 1.37-1.61 3.55v.92h-2.32v-.92c0-3.35 1.74-5.86 4-5.84s3.82 2.52 3.78 5.89c0 3.12-1.54 5.57-3.58 5.82h-.15a1.13 1.13 0 01-.74-.3zm.85-.2zM78.29 32.56a.44.44 0 00.39.48.45.45 0 00.41-.47.45.45 0 00-.4-.48.44.44 0 00-.4.47z"/>
      <path class="cls-4" d="M78.5 32.55a.23.23 0 00.25.23c1.55-.19 2.75-2.27 2.78-4.91 0-2.79-1.25-5-2.92-5s-3 2.14-3 4.93h.49c0-2.47 1.16-4.46 2.53-4.45s2.47 2 2.44 4.51S80 32.13 78.7 32.3a.23.23 0 00-.2.22z"/>
      <path class="cls-4" d="M78 33.41a1.16 1.16 0 01-.39-.87 1.16 1.16 0 011-1.12c.63-.08 1.52-1.47 1.54-3.54s-.89-3.57-1.53-3.58S77 25.64 77 27.81v.92h-2.32v-.91c0-3.36 1.74-5.87 4-5.84s3.86 2.57 3.82 5.93c0 3.12-1.54 5.56-3.58 5.81h-.15a1.08 1.08 0 01-.77-.31zm.85-.2zM68.28 32.45a.44.44 0 00.39.48.45.45 0 00.41-.47.44.44 0 00-.4-.48.43.43 0 00-.4.47z"/>
      <path class="cls-4" d="M68.49 32.44a.22.22 0 00.25.23c1.55-.19 2.74-2.28 2.77-4.92s-1.25-5-2.91-5-3 2.15-3 4.94h.49c0-2.47 1.16-4.47 2.53-4.45s2.47 2 2.44 4.51S70 32 68.69 32.19a.23.23 0 00-.2.22z"/>
      <path class="cls-4" d="M68 33.3a1.19 1.19 0 01-.38-.87 1.15 1.15 0 011-1.12c.63-.08 1.52-1.47 1.54-3.54s-.89-3.58-1.53-3.58S67 25.53 67 27.7v.92h-2.32v-.91c0-3.36 1.74-5.87 4-5.84s3.86 2.57 3.82 5.92c0 3.12-1.54 5.57-3.58 5.82h-.22a1.17 1.17 0 01-.7-.31zm.86-.2zM58.86 32.34a.44.44 0 00.39.48.45.45 0 00.41-.47.45.45 0 00-.4-.48.44.44 0 00-.4.47z"/>
      <path class="cls-4" d="M59.07 32.34a.23.23 0 00.25.23c1.54-.2 2.74-2.28 2.77-4.92s-1.25-5-2.91-5-3 2.14-3 4.93h.49c0-2.48 1.16-4.47 2.53-4.46s2.47 2 2.44 4.51-1.06 4.27-2.34 4.44a.23.23 0 00-.2.22z"/>
      <path class="cls-4" d="M58.53 33.19a1.17 1.17 0 01-.38-.86 1.17 1.17 0 011-1.12c.63-.08 1.52-1.47 1.54-3.54s-.89-3.57-1.53-3.58-1.58 1.37-1.61 3.55v.91h-2.32v-.92c0-3.35 1.74-5.87 4-5.84s3.82 2.51 3.77 5.87c0 3.12-1.54 5.56-3.58 5.82h-.15a1.12 1.12 0 01-.74-.29zm.86-.2zM49.78 32.24a.41.41 0 10.41-.47.44.44 0 00-.41.47z"/>
      <path class="cls-4" d="M50 32.23a.23.23 0 00.25.23c1.55-.19 2.75-2.27 2.78-4.92s-1.25-5-2.92-5-3 2.15-3 4.94h.49C47.59 25 48.73 23 50.1 23s2.46 2 2.43 4.51-1.06 4.3-2.34 4.49a.23.23 0 00-.2.22z"/>
      <path class="cls-4" d="M49.46 33.09a1.12 1.12 0 01-.38-.87 1.14 1.14 0 011-1.12c.63-.08 1.52-1.47 1.55-3.54S50.73 24 50.09 24s-1.59 1.37-1.61 3.54v.92h-2.32v-.91c0-3.36 1.74-5.87 4-5.84s3.84 2.49 3.77 5.84c0 3.13-1.54 5.57-3.58 5.82h-.15a1.1 1.1 0 01-.74-.28zm.85-.2zM40.36 32.13a.41.41 0 10.8 0 .45.45 0 00-.4-.48.44.44 0 00-.4.48z"/>
      <path class="cls-4" d="M40.57 32.13a.24.24 0 00.25.23c1.55-.19 2.75-2.28 2.78-4.92 0-2.79-1.25-5-2.92-5s-3 2.15-3 4.93h.49c0-2.47 1.16-4.47 2.54-4.46s2.46 2 2.43 4.51-1.06 4.28-2.34 4.44a.24.24 0 00-.2.23z"/>
      <path class="cls-4" d="M40 33a1.13 1.13 0 01-.38-.87 1.15 1.15 0 011-1.13c.63-.08 1.52-1.46 1.54-3.54s-.88-3.57-1.52-3.58-1.59 1.37-1.61 3.55v.91h-2.32v-.92c0-3.35 1.73-5.86 3.95-5.84s3.86 2.57 3.82 5.93c0 3.12-1.54 5.57-3.58 5.82h-.15A1.18 1.18 0 0140 33zm.85-.21zM30.35 32a.44.44 0 00.39.48.45.45 0 00.41-.47.45.45 0 00-.4-.48.44.44 0 00-.4.47z"/>
      <path class="cls-4" d="M30.56 32a.23.23 0 00.25.23c1.55-.19 2.75-2.27 2.78-4.91s-1.25-5-2.92-5-3 2.14-3 4.93h.49c0-2.47 1.16-4.46 2.53-4.45s2.47 2 2.44 4.51-1.13 4.28-2.37 4.45a.23.23 0 00-.2.22z"/>
      <path class="cls-4" d="M30 32.87a1.14 1.14 0 01-.39-.87 1.17 1.17 0 011-1.12c.63-.08 1.52-1.47 1.54-3.54s-.89-3.57-1.53-3.58-1.55 1.34-1.62 3.51v.92h-2.32v-.92c0-3.36 1.73-5.87 3.95-5.84s3.91 2.57 3.87 5.91c0 3.12-1.54 5.56-3.58 5.81h-.15a1.08 1.08 0 01-.77-.28zm.85-.2z"/>
      <path class="cls-8" d="M32.45 22.65a2.94 2.94 0 011.18 1.19 4.57 4.57 0 01.59 1.59 5.57 5.57 0 01.05 1.68l-.14.82a7.25 7.25 0 01-.28.78c-.12-1.1-.17-2.14-.37-3.14a8.24 8.24 0 00-1.03-2.92zM42.32 23a3.09 3.09 0 011.19 1.19 4.81 4.81 0 01.58 1.6 5.51 5.51 0 01.06 1.67l-.15.82c-.09.27-.16.53-.27.79-.13-1.11-.18-2.14-.37-3.15A8.54 8.54 0 0042.32 23zM51.74 23a3.09 3.09 0 011.19 1.19 4.81 4.81 0 01.58 1.6 5.51 5.51 0 01.06 1.67l-.14.82c-.1.27-.17.53-.28.79-.13-1.11-.18-2.14-.37-3.15A8.54 8.54 0 0051.74 23zM60.83 23A3 3 0 0162 24.14a5.06 5.06 0 01.59 1.6 5.85 5.85 0 010 1.67l-.14.82a7.41 7.41 0 01-.28.79c-.13-1.11-.18-2.14-.37-3.15a8.31 8.31 0 00-.97-2.87zM70.24 23a3 3 0 011.18 1.19 4.62 4.62 0 01.59 1.6 5.85 5.85 0 010 1.67l-.14.82a7.41 7.41 0 01-.28.79c-.12-1.11-.18-2.14-.37-3.15a8.31 8.31 0 00-.98-2.92zM80.24 23.08a3 3 0 011.19 1.19 4.81 4.81 0 01.58 1.6 5.51 5.51 0 01.06 1.67l-.14.82c-.1.27-.17.54-.28.79-.13-1.15-.18-2.15-.37-3.15a8.33 8.33 0 00-1.04-2.92zM89.67 23.19a3.07 3.07 0 011.18 1.19 5.09 5.09 0 01.59 1.62 5.93 5.93 0 010 1.68l-.14.82c-.1.27-.16.53-.28.79-.13-1.11-.18-2.14-.37-3.15a8.44 8.44 0 00-.98-2.95zM99.56 23.3a3 3 0 011.18 1.19 4.64 4.64 0 01.59 1.59 5.93 5.93 0 010 1.68l-.14.82a7.41 7.41 0 01-.28.79c-.12-1.11-.18-2.14-.37-3.15a8.31 8.31 0 00-.98-2.92zM108.87 23.41a3.09 3.09 0 011.19 1.19 4.75 4.75 0 01.58 1.59 5.58 5.58 0 01.06 1.68l-.15.82c-.09.26-.16.53-.27.79-.13-1.11-.18-2.15-.38-3.15a8.24 8.24 0 00-1.03-2.92zM118.89 23.41a3.07 3.07 0 011.18 1.19 5 5 0 01.59 1.59 5.92 5.92 0 010 1.68l-.14.82a8.29 8.29 0 01-.28.79c-.13-1.11-.18-2.15-.37-3.15a8.24 8.24 0 00-.98-2.92zM128.18 23.53a3.09 3.09 0 011.19 1.19 4.83 4.83 0 01.58 1.59A5.59 5.59 0 01130 28l-.14.82c-.1.27-.17.53-.28.79-.13-1.11-.18-2.14-.37-3.15a8.47 8.47 0 00-1.03-2.93z"/>
    </g>
  </g>
</svg>