<svg width="581" height="465" viewBox="0 0 581 465" fill="none" xmlns="http://www.w3.org/2000/svg">
<path opacity="0.5" d="M259.19 455.6L563.718 279.223C587.821 265.264 584.844 240.91 556.948 224.85L415.947 143.319C388.051 127.2 345.914 125.448 321.811 139.406L17.2831 315.783C-6.82006 329.741 -3.84365 354.096 24.0529 370.156L165.053 451.629C192.891 467.748 235.087 469.5 259.19 455.6Z" fill="black" fill-opacity="0.2"/>
<path d="M507.031 100.155L332.664 2.22933C326.67 -1.28925 317.506 -0.545886 301.11 4.16208C262.125 15.4612 201.097 38.0099 162.954 78.201C142.595 99.6594 127.14 118.789 110.644 143.22C101.084 157.344 63.5356 204.226 39.263 256.36C28.0679 280.445 30.198 307.652 30.198 307.652C30.0494 320.537 37.4302 336.297 44.3652 341.748C69.7276 361.72 125.802 395.567 159.289 408.353C188.366 419.454 227.549 410.831 248.354 399.086C248.354 399.086 239.339 394.031 225.419 386.102L507.031 100.155Z" fill="#00B152"/>
<path d="M508.22 207.942C523.031 211.907 526.102 226.279 527.241 239.56L525.359 243.227L479.291 216.268C488.257 210.618 497.421 205.018 508.22 207.942Z" fill="#014929"/>
<path d="M505.842 235.744C505.842 256.36 493.26 280.296 477.805 289.167C462.35 298.087 449.817 288.572 449.867 268.006C449.867 247.39 462.449 223.454 477.904 214.583C493.359 205.663 505.842 215.128 505.842 235.744Z" fill="#1E3327"/>
<path d="M460.369 291.05L478.449 301.556L512.431 222.71L493.607 211.956L460.369 291.05Z" fill="#1E3327"/>
<path d="M523.972 246.251C523.972 266.867 511.39 290.803 495.934 299.674C480.479 308.594 467.947 299.079 467.996 278.513C467.996 257.897 480.578 233.961 496.034 225.09C511.489 216.17 524.021 225.635 523.972 246.251Z" fill="#2B4638"/>
<path d="M516.096 250.76C516.096 265.578 507.08 282.774 495.935 289.167C484.839 295.56 475.823 288.771 475.823 273.953C475.823 259.135 484.839 241.939 495.984 235.546C507.13 229.153 516.145 235.992 516.096 250.76Z" fill="white"/>
<path d="M511.589 270.334L498.313 263.445L492.27 273.159L500.889 285.498C500.889 285.498 508.715 278.511 511.589 270.334Z" fill="#CBCBCB"/>
<path d="M515.849 255.122C515.849 255.122 517.484 244.714 513.422 238.966C506.487 244.814 500.096 251.207 500.096 251.207L500.592 256.757L515.849 255.122Z" fill="#CBCBCB"/>
<path d="M487.861 274.496C487.019 275.487 481.62 289.463 481.62 289.463C481.62 289.463 477.805 287.332 476.616 280.84C475.824 276.479 475.873 274.001 475.873 274.001L485.236 269.441L487.861 274.496Z" fill="#CBCBCB"/>
<path d="M497.025 250.86L501.929 233.366C501.929 233.366 498.561 233.317 494.35 236.637C490.684 239.511 488.752 241.642 488.752 241.642L493.656 253.586L497.025 250.86Z" fill="#CBCBCB"/>
<path d="M489.991 256.111C489.991 256.111 487.069 253.732 482.214 250.809C481.025 253.088 478.648 257.4 477.855 261.265C483.353 262.306 487.415 262.306 487.415 262.306L489.991 256.111Z" fill="#CBCBCB"/>
<path d="M503.91 256.461C503.91 264.043 499.303 272.815 493.607 276.085C487.91 279.356 483.353 275.887 483.353 268.305C483.353 260.723 487.96 251.951 493.656 248.68C499.303 245.409 503.91 248.878 503.91 256.461Z" fill="#2B4638"/>
<path d="M500.79 259.829C500.79 264.24 498.115 269.344 494.796 271.227C491.477 273.111 488.852 271.128 488.852 266.718C488.852 262.307 491.527 257.203 494.845 255.319C498.164 253.387 500.839 255.418 500.79 259.829Z" fill="white"/>
<path d="M301.902 324.9C316.713 328.865 319.735 343.237 320.924 356.518L319.041 360.185L272.973 333.226C281.988 327.576 291.103 321.976 301.902 324.9Z" fill="#014929"/>
<path d="M299.525 352.702C299.525 373.318 286.942 397.254 271.487 406.125C256.032 415.045 243.499 405.53 243.549 384.964C243.549 364.348 256.131 340.412 271.586 331.541C287.042 322.621 299.574 332.086 299.525 352.702Z" fill="#1E3327"/>
<path d="M254.051 408.008L272.181 418.514L306.163 339.668L287.29 328.914L254.051 408.008Z" fill="#1E3327"/>
<path d="M317.704 363.209C317.704 383.825 305.122 407.761 289.667 416.632C274.211 425.552 261.679 416.037 261.728 395.471C261.728 374.855 274.311 350.919 289.766 342.048C305.221 333.128 317.704 342.593 317.704 363.209Z" fill="#2B4638"/>
<path d="M309.828 367.767C309.828 382.584 300.812 399.781 289.667 406.174C278.571 412.567 269.555 405.777 269.555 390.96C269.555 376.142 278.571 358.945 289.716 352.553C300.862 346.11 309.828 352.949 309.828 367.767Z" fill="white"/>
<path d="M305.271 387.292L291.995 380.403L285.952 390.117L294.571 402.456C294.621 402.456 302.447 395.469 305.271 387.292Z" fill="#CBCBCB"/>
<path d="M309.581 372.08C309.581 372.08 311.215 361.673 307.154 355.924C300.219 361.772 293.828 368.165 293.828 368.165L294.274 373.715L309.581 372.08Z" fill="#CBCBCB"/>
<path d="M281.593 391.454C280.751 392.445 275.352 406.421 275.352 406.421C275.352 406.421 271.537 404.29 270.348 397.798C269.556 393.437 269.605 390.959 269.605 390.959L278.968 386.399L281.593 391.454Z" fill="#CBCBCB"/>
<path d="M290.757 367.818L295.661 350.324C295.661 350.324 292.292 350.275 288.082 353.595C284.416 356.469 282.484 358.6 282.484 358.6L287.388 370.544L290.757 367.818Z" fill="#CBCBCB"/>
<path d="M283.722 373.069C283.722 373.069 280.8 370.69 275.945 367.767C274.756 370.046 272.379 374.358 271.586 378.223C277.084 379.264 281.097 379.264 281.097 379.264L283.722 373.069Z" fill="#CBCBCB"/>
<path d="M297.593 373.419C297.593 381.001 292.986 389.773 287.289 393.043C281.592 396.314 277.035 392.845 277.035 385.263C277.035 377.681 281.642 368.909 287.339 365.638C293.035 362.367 297.642 365.836 297.593 373.419Z" fill="#2B4638"/>
<path d="M294.522 376.787C294.522 381.198 291.847 386.302 288.528 388.185C285.209 390.069 282.584 388.086 282.584 383.676C282.584 379.265 285.259 374.161 288.578 372.277C291.847 370.345 294.522 372.376 294.522 376.787Z" fill="white"/>
<path d="M535.96 237.18C535.96 237.18 532.839 238.915 527.241 242.087C527.985 222.164 516.69 212.055 512.48 211.906C488.802 211.212 481.223 219.736 477.359 225.782C468.839 239.014 454.275 266.915 456.603 281.881C418.015 303.637 364.516 334.561 323.054 357.903C319.587 327.028 301.407 322.915 295.711 326.087C278.175 335.949 267.178 340.904 255.834 364.345C252.763 370.738 250.237 396.31 248.354 398.986C246.076 400.225 247.264 400.522 245.085 401.563C223.537 411.722 202.534 412.118 202.534 412.118C202.534 412.118 200.304 376.239 210.856 355.722C237.159 304.628 273.37 257.053 282.93 242.929C299.475 218.497 316.714 197.287 337.073 175.878C375.216 135.687 436.244 113.138 475.229 101.839C503.613 93.6122 510.449 97.3291 516.344 114.773C520.653 127.559 520.158 145.846 529.074 159.821C537.297 172.706 535.91 183.658 536.802 200.904C537.694 220.628 535.96 237.18 535.96 237.18Z" fill="#0EC061"/>
<path d="M481.867 201.45C469.829 225.386 451.204 253.485 408.009 284.062C376.107 306.661 318.844 338.824 318.844 338.824L321.618 350.123L453.978 272.813L467.947 237.478C467.947 237.478 479.241 218.845 498.015 211.213C499.402 210.668 512.331 209.478 524.269 217.408C531.303 210.024 525.904 182.519 523.923 179.496C515.006 183.708 493.607 195.701 481.867 201.45Z" fill="#04AB51"/>
<path d="M426.139 190.647C426.139 190.647 435.006 205.96 435.006 230.392C435.006 254.824 435.006 294.074 435.006 294.074L437.829 292.537C437.829 292.537 437.829 239.66 437.829 224.743C437.829 204.226 429.21 189.21 429.21 189.21L426.139 190.647Z" fill="#014929"/>
<path d="M341.828 238.868C341.828 238.868 350.695 254.181 350.695 278.613C350.695 303.045 350.695 342.294 350.695 342.294L353.519 340.758C353.519 340.758 353.519 287.88 353.519 272.963C353.519 252.447 344.9 237.431 344.9 237.431L341.828 238.868Z" fill="#014929"/>
<path d="M161.072 318.055C160.379 317.906 159.685 317.757 158.942 317.559C143.091 313.842 130.608 311.513 110.992 299.57C90.2856 286.933 80.5765 277.071 72.0564 268.15C71.1647 267.209 70.3226 266.217 69.53 265.177C69.0347 267.902 68.3907 270.529 67.5981 273.056C67.9944 273.502 68.3412 274.048 68.7375 274.494C77.3072 283.414 87.0162 293.276 107.673 305.913C126.942 317.658 139.326 320.136 154.831 323.754C156.664 321.573 158.794 319.69 161.072 318.055Z" fill="#2B4638"/>
<path d="M65.27 280.045C65.1214 279.896 65.0223 279.747 64.8737 279.599C64.2298 280.887 63.5363 282.176 62.7932 283.563C65.1214 288.172 67.6477 292.038 70.3227 294.961C83.9946 309.68 115.549 327.223 141.654 334.36C143.735 334.905 145.766 335.45 147.797 335.995C148.688 334.161 149.58 332.229 150.62 330.147C150.769 329.85 150.967 329.602 151.116 329.305C135.76 325.737 123.376 323.259 104.205 311.563C83.5488 298.777 73.7902 288.915 65.27 280.045Z" fill="#2B4638"/>
<path d="M114.46 294.071C134.026 306.014 146.509 308.343 162.41 312.06C164.689 312.605 166.869 313.051 169.048 313.547C172.02 312.209 174.993 311.168 177.717 310.375C174.002 309.632 170.188 308.789 166.324 307.848C150.472 304.131 137.989 301.802 118.373 289.858C97.667 277.221 87.958 267.359 79.4378 258.439C76.1685 255.069 73.5926 251.104 71.4625 247.14C71.3635 249.865 71.1653 253.186 70.769 256.655C72.2056 258.736 73.7412 260.768 75.5245 262.651C84.0447 271.572 93.7537 281.433 114.46 294.071Z" fill="#2B4638"/>
<path d="M68.7371 274.498C68.2912 274.052 67.9445 273.556 67.5482 273.061C66.9538 274.993 66.2603 276.827 65.4182 278.462C65.22 278.809 65.0219 279.206 64.8237 279.553C64.9723 279.701 65.0714 279.85 65.22 279.999C73.7897 288.919 83.4988 298.781 104.155 311.418C123.326 323.114 135.66 325.591 151.066 329.16C152.106 327.128 153.344 325.344 154.781 323.708C139.276 320.091 126.892 317.662 107.623 305.868C87.0158 293.28 77.2572 283.418 68.7371 274.498Z" fill="#385646"/>
<path d="M110.992 299.572C130.559 311.515 143.042 313.844 158.943 317.561C159.686 317.71 160.379 317.859 161.073 318.057C163.599 316.273 166.324 314.736 169.048 313.498C166.819 313.002 164.689 312.556 162.41 312.011C146.559 308.294 134.076 305.965 114.46 294.021C93.8031 281.384 84.0445 271.522 75.5244 262.602C73.7411 260.768 72.2055 258.736 70.7689 256.605C70.4717 259.381 70.0754 262.305 69.5305 265.179C70.3231 266.22 71.1157 267.211 72.0568 268.152C80.577 277.122 90.2861 286.935 110.992 299.572Z" fill="#385646"/>
<path d="M184.057 311.614C165.927 318.057 162.558 331.933 160.527 338.821C175.339 341.696 190.15 342.241 205.853 336.393C213.531 326.135 217.395 316.917 217.395 316.917C217.395 316.917 203.079 315.282 184.057 311.614Z" fill="white"/>
<path d="M184.057 311.615C181.976 311.218 179.846 310.772 177.667 310.326C168.255 313.052 155.97 318.652 150.57 330.001C149.58 332.082 148.638 334.015 147.747 335.848C152.007 336.939 156.267 337.93 160.478 338.723C162.558 331.933 165.927 318.057 184.057 311.615Z" fill="#ACACAC"/>
<path d="M67.5981 238.717C65.1213 232.225 64.081 227.22 64.081 227.22C64.081 227.22 58.3844 235.942 52.7373 246.597C53.8766 257.202 56.1553 266.618 59.0779 274.646C67.5981 258.937 67.5485 238.668 67.5981 238.717Z" fill="white"/>
<path d="M55.8583 249.816C55.9574 254.425 58.88 259.331 62.3971 260.719C65.8646 262.107 68.5891 259.53 68.49 254.871C68.3909 250.262 65.4683 245.356 61.9513 243.969C58.4342 242.581 55.7097 245.208 55.8583 249.816Z" fill="#CBCBCB"/>
<path d="M57.7898 250.758C57.8888 253.929 59.8703 257.299 62.2975 258.241C64.6753 259.182 66.5576 257.398 66.5081 254.227C66.409 251.055 64.4276 247.685 62.0003 246.744C59.6226 245.802 57.7402 247.586 57.7898 250.758Z" fill="#E4E4E4"/>
<path d="M65.4682 278.461C69.8769 269.739 71.1153 255.813 71.4125 247.14C69.8274 244.216 68.589 241.342 67.5487 238.666C67.5487 238.666 67.5487 256.655 59.0286 274.595C60.1679 277.767 61.4063 280.79 62.7933 283.516C63.7345 281.732 64.6757 280.047 65.4682 278.461Z" fill="#ACACAC"/>
<path d="M175.24 324.255C175.339 328.863 178.261 333.77 181.778 335.157C185.246 336.545 187.97 333.968 187.871 329.309C187.772 324.701 184.85 319.794 181.333 318.407C177.865 317.069 175.141 319.646 175.24 324.255Z" fill="#CBCBCB"/>
<path d="M193.073 325.045C193.172 328.514 195.351 332.231 198.026 333.272C200.652 334.312 202.732 332.38 202.633 328.861C202.534 325.392 200.355 321.675 197.68 320.635C195.054 319.594 192.974 321.576 193.073 325.045Z" fill="#CBCBCB"/>
<path d="M177.221 325.194C177.321 328.366 179.302 331.736 181.729 332.677C184.107 333.619 185.989 331.835 185.94 328.663C185.841 325.492 183.859 322.122 181.432 321.18C179.005 320.238 177.172 322.023 177.221 325.194Z" fill="#E4E4E4"/>
<path d="M167.165 390.067C147.747 386.796 116.539 372.424 94.2483 359.391C73.9881 347.546 58.632 334.215 47.3874 320.141C44.5143 316.523 43.7712 311.667 46.4957 307.9L50.7063 302.003C48.9725 301.16 46.8425 301.557 45.6041 303.242L40.8982 309.833C38.2232 313.599 38.9167 318.456 41.7898 322.074C53.0345 336.198 68.1924 350.916 88.4526 362.76C110.694 375.794 141.555 393.833 161.27 394.031C166.422 394.081 168.701 392.445 169.543 390.067C168.849 390.166 168.007 390.215 167.165 390.067Z" fill="#2B4638"/>
<path d="M169.84 384.762L168.255 375.346C167.462 370.489 164.094 366.426 159.388 364.84C145.864 360.182 116.49 349.378 91.6225 335.006C72.3035 323.856 58.0372 309.534 51.9443 302.843C51.5975 302.447 51.1517 302.199 50.7059 302.001L46.4953 307.898C43.8204 311.665 44.5139 316.521 47.387 320.139C58.6316 334.263 73.9878 347.544 94.2479 359.389C116.49 372.422 147.697 386.794 167.165 390.065C168.007 390.213 168.849 390.164 169.642 390.065C170.186 388.479 170.137 386.645 169.84 384.762Z" fill="#385646"/>
<path d="M74.8301 349.925L106.137 367.964V345.613L74.8301 327.574V349.925Z" fill="white"/>
<path d="M84.9355 200.26C84.9355 200.26 108.366 235.941 143.487 256.359C186.137 281.137 238.992 287.332 238.992 287.332C241.073 283.962 243.005 280.89 244.837 277.966L91.2761 189.258C89.2452 192.776 87.1151 196.394 84.9355 200.26Z" fill="#1E3327"/>
<path d="M296.751 159.724C263.413 140.397 208.775 107.788 183.66 94.1596C171.078 87.3207 174.248 77.9543 174.546 77.2109C172.911 78.7968 171.227 80.4322 169.642 82.0676C164.292 87.6676 159.487 92.7224 154.929 97.6782L310.522 187.526C315.277 182.223 320.231 176.822 325.729 171.023C326.918 169.784 328.206 168.595 329.395 167.406L329.494 167.207C329.444 167.257 311.017 168 296.751 159.724Z" fill="#1E3327"/>
<path d="M495.587 94.1602C491.129 91.6327 340.887 7.13715 340.887 7.13715L337.37 5.15485C333.357 3.56901 328.008 3.56901 320.528 4.95662C320.775 5.00618 332.218 6.64158 345.84 14.8186C359.611 23.0451 457.841 77.261 467.055 83.0593C476.219 88.8575 474.881 94.1602 474.881 94.1602C484.64 91.831 491.08 91.5336 495.587 94.1602Z" fill="#1E3327"/>
<path d="M111.091 200.656L244.838 277.916C261.779 250.907 268.565 242.631 274.906 233.264C283.723 220.231 291.798 209.526 300.516 199.119C282.881 189.257 257.568 174.737 225.469 155.112C181.085 128.004 135.908 170.128 111.091 200.656Z" fill="#2B4638"/>
<path d="M204.663 126.47L154.879 97.7266C141.951 111.702 130.904 125.082 115.449 149.217C109.901 157.84 101.381 171.865 91.2754 189.259L102.471 195.751L121.542 206.803C141.208 183.015 171.375 154.47 216.948 164.183C247.066 170.626 282.831 189.309 300.466 199.121C303.685 195.256 306.955 191.44 310.422 187.574L204.663 126.47Z" fill="#385646"/>
<path d="M196.241 121.564L154.928 97.6777C141.999 111.653 130.953 125.033 115.497 149.168C109.949 157.791 101.429 171.816 91.324 189.21L102.519 195.703C111.039 181.777 143.783 132.418 196.241 121.564Z" fill="#4B6D5B"/>
<path d="M329.444 76.0723C271.437 92.0298 232.948 106.699 217.146 113.191C243.152 128.306 274.607 146.94 296.75 159.775C311.016 168.051 329.444 167.258 329.444 167.258L329.345 167.456C367.636 129.545 426.039 107.987 463.835 97.0847C467.897 95.8953 471.513 94.9042 474.782 94.1608C474.782 94.1608 476.169 88.8581 466.955 83.0599C463.835 81.0776 450.41 73.4953 433.519 64.0794C406.868 63.1873 369.766 65.021 329.444 76.0723Z" fill="#2B4638"/>
<path d="M320.478 4.95605C316.763 5.64986 312.602 6.69057 307.747 8.07818C270.348 18.8817 212.787 40.0923 174.496 77.2109C174.248 77.9047 171.078 87.3207 183.61 94.1596C192.081 98.7684 203.92 105.508 217.097 113.19C232.899 106.747 271.388 92.0286 329.395 76.0711C369.667 65.0198 406.819 63.1861 433.519 64.0286C400.726 45.6923 354.856 20.2198 345.741 14.7684C332.218 6.69057 320.726 5.00561 320.478 4.95605Z" fill="#2B4638"/>
<path d="M320.478 4.95605C316.763 5.64986 312.602 6.69057 307.747 8.07818C270.348 18.8817 212.787 40.0923 174.496 77.2109C174.248 77.9047 171.078 87.3207 183.61 94.1596C192.081 98.7684 203.92 105.508 217.097 113.19C232.899 106.747 271.388 92.0286 329.395 76.0711C369.667 65.0198 406.819 63.1861 433.519 64.0286C400.726 45.6923 354.856 20.2198 345.741 14.7684C332.218 6.69057 320.726 5.00561 320.478 4.95605Z" fill="#4B6D5B"/>
<path d="M387.154 144.409C359.166 161.16 341.532 176.374 327.018 197.436C312.503 218.498 304.875 229.004 297.643 242.88C290.41 256.806 292.095 267.312 317.457 256.31C338.114 247.34 454.87 175.928 471.761 165.025C488.703 154.172 492.913 139.057 495.341 125.726C497.768 112.444 494.152 100.352 467.501 109.075C444.269 116.756 406.671 132.713 387.154 144.409Z" fill="#1E3327"/>
<path d="M340.294 189.21C335.885 196.792 323.451 213.741 313.445 227.667C305.222 239.114 296.702 253.734 300.467 255.815C305.371 258.491 331.526 245.111 340.294 238.272V189.21Z" fill="#2B4638"/>
<path d="M346.039 183.709V235.397C346.039 235.397 384.628 211.412 395.377 205.911C405.978 200.459 422.87 188.962 422.87 188.962V131.822C422.87 131.822 398.795 141.486 380.764 153.974C359.018 169.09 346.039 183.709 346.039 183.709Z" fill="#2B4638"/>
<path d="M429.21 129.392V184.699C429.21 184.699 462.152 165.668 470.028 161.109C477.904 156.55 489.991 137.817 490.882 124.536C491.774 111.254 486.276 111.601 481.223 111.254C474.833 110.759 443.377 122.603 429.21 129.392Z" fill="#2B4638"/>
<path d="M423.266 215.922C423.266 219.986 420.789 224.743 417.718 226.527C414.647 228.311 412.17 226.428 412.17 222.315C412.17 218.251 414.647 213.494 417.718 211.71C420.789 209.975 423.266 211.858 423.266 215.922Z" fill="#014929"/>
<path d="M425.148 218.204L410.238 226.827C409.049 227.521 408.058 226.777 408.058 225.142C408.058 223.506 409.049 221.623 410.238 220.929L425.148 212.306C426.337 211.613 427.328 212.356 427.328 213.991C427.377 215.627 426.387 217.51 425.148 218.204Z" fill="#3AC87C"/>
<path d="M498.511 172.56C498.511 176.623 496.034 181.381 492.963 183.165C489.892 184.949 487.415 183.066 487.415 178.953C487.415 174.889 489.892 170.131 492.963 168.347C496.034 166.613 498.511 168.496 498.511 172.56Z" fill="#1E3327"/>
<path d="M336.281 258.193C336.281 258.193 329.494 266.618 324.343 269.641C319.191 272.664 318.894 274.845 318.894 280.147C318.894 285.5 323.154 285.252 327.612 280.098C332.021 274.944 340.293 262.406 340.293 262.406L336.281 258.193Z" fill="#18D16E"/>
<path d="M336.975 256.164C330.783 251.555 326.374 249.722 323.402 248.929C323.154 250.118 323.006 251.407 322.956 252.794C322.857 259.286 325.532 268.653 337.817 273.311C342.523 275.095 347.328 275.987 350.993 275.739C350.746 270.09 347.08 263.647 336.975 256.164Z" fill="#18D16E"/>
<path d="M354.808 264.687C350.052 257.798 340.096 248.729 332.764 245.012C326.969 242.138 324.343 244.616 323.452 248.927C326.424 249.671 330.833 251.554 337.025 256.163C347.13 263.646 350.795 270.088 351.093 275.787C356.938 275.391 359.91 272.021 354.808 264.687Z" fill="#07A952"/>
<path d="M285.456 326.335C263.314 339.121 243.301 371.829 244.985 401.613C246.026 401.018 250.335 400.374 252.664 398.987C252.664 398.689 252.664 397.995 252.664 397.698C252.664 373.217 267.574 344.82 285.952 334.264C304.28 323.709 319.141 334.958 319.141 359.39C319.141 359.638 319.091 359.886 319.091 360.183C321.221 358.944 323.401 357.705 325.63 356.417C325.531 327.079 307.599 313.599 285.456 326.335Z" fill="#07A952"/>
<path d="M491.774 209.381C469.631 222.167 449.619 254.875 451.303 284.659C452.343 284.064 456.653 282.131 458.981 280.744C458.981 280.447 458.981 281.041 458.981 280.744C458.981 256.262 473.891 227.866 492.269 217.31C510.598 206.754 525.458 218.004 525.458 242.436C525.458 242.684 525.409 242.932 525.409 243.229C527.539 241.99 529.718 240.751 531.948 239.462C531.799 210.124 513.867 196.645 491.774 209.381Z" fill="#07A952"/>
</svg>
