<svg width="366" height="393" viewBox="0 0 366 393" fill="none" xmlns="http://www.w3.org/2000/svg">
<path d="M67.5156 66.8473L82.1857 51.4465C82.1857 51.4465 98.3228 27.2453 110.059 33.8456C121.795 40.446 93.1883 55.8468 93.1883 55.8468L78.5182 80.048L67.5156 66.8473Z" fill="#A0616A"/>
<path d="M21.3048 365.329C21.3048 365.329 10.3022 386.597 18.3708 388.064C26.4393 389.53 66.0486 391.73 66.7821 389.53C67.5156 387.33 73.3836 379.997 68.9826 377.063C64.5816 374.13 46.9774 371.929 46.9774 371.929L41.1094 366.062L21.3048 365.329Z" fill="#2F2E41"/>
<path d="M15.4377 157.785C15.4377 157.785 -8.0344 187.12 11.0367 217.189L15.4377 267.791C15.4377 267.791 7.36916 337.461 17.6382 360.929L19.1052 368.996H44.7779L38.1764 307.393C38.1764 307.393 38.9099 300.06 41.1104 298.593C43.3109 297.126 79.2526 217.922 79.2526 217.922C79.2526 217.922 73.3846 206.921 75.5851 204.721C77.7856 202.521 73.3846 158.519 71.1841 157.052C68.9836 155.585 15.4377 157.785 15.4377 157.785Z" fill="#2F2E41"/>
<path d="M57.2467 358.729L60.1806 375.597L31.5742 374.13L35.2418 355.796L57.2467 358.729Z" fill="#A0616A"/>
<path d="M52.1125 59.513C64.2656 59.513 74.1177 49.6628 74.1177 37.5119C74.1177 25.361 64.2656 15.5107 52.1125 15.5107C39.9595 15.5107 30.1074 25.361 30.1074 37.5119C30.1074 49.6628 39.9595 59.513 52.1125 59.513Z" fill="#A0616A"/>
<path d="M32.3079 41.1787L30.1074 67.5801L53.5795 78.5807C53.5795 78.5807 49.5453 54.0127 52.4793 47.4124L32.3079 41.1787Z" fill="#A0616A"/>
<path d="M56.5128 77.1145L54.3123 68.3141L24.2386 57.3135C24.2386 57.3135 21.3046 57.3135 22.0381 62.4471C22.7716 67.5807 22.7716 66.8473 22.7716 66.8473C22.7716 66.8473 12.5025 71.2475 11.769 78.5813C11.0356 85.915 -0.70052 88.1151 0.0329838 99.1157C0.766487 110.116 4.43401 115.983 4.43401 115.983C4.43401 115.983 0.766484 124.784 6.63452 129.917C6.63452 129.917 12.5026 140.184 9.56854 147.518C6.63452 154.852 2.96702 167.319 11.0356 165.119C19.1041 162.919 74.8504 159.252 74.8504 159.252C74.8504 159.252 82.919 129.184 74.1169 118.183C74.1169 118.183 74.1169 111.583 67.5154 98.3823C60.9139 85.1816 56.5128 77.1145 56.5128 77.1145Z" fill="#575A89"/>
<path d="M17.6367 159.985C17.6367 159.985 27.1723 200.321 38.9084 204.721C38.9084 204.721 41.1089 234.056 53.5784 232.589C66.048 231.122 53.5784 204.721 53.5784 204.721L39.6419 154.118L17.6367 159.985Z" fill="#A0616A"/>
<path d="M55.0469 79.3146C55.0469 79.3146 66.0494 61.7137 68.9835 64.6472C71.9175 67.5806 86.5876 76.3811 85.8541 82.2481C85.1206 88.1151 78.519 88.1151 78.519 88.1151L63.1154 99.849L55.0469 79.3146Z" fill="#575A89"/>
<path d="M70.4491 210.588L79.2512 216.914L85.1192 279.525C85.1192 279.525 63.8476 364.596 57.9795 365.329C52.1115 366.063 27.9059 366.063 28.6394 363.863C29.3729 361.662 33.0404 352.862 33.0404 350.662C33.0404 348.462 40.6905 330.867 40.6905 330.867L50.6445 289.792L48.444 257.524L70.4491 210.588Z" fill="#2F2E41"/>
<path d="M59.448 369.73C59.448 369.73 28.6408 360.196 27.1738 362.396C25.7068 364.596 15.9217 386.771 29.6163 389.251C43.3109 391.731 92.4557 396.131 92.4557 389.531C92.4557 382.93 90.9887 378.53 86.5877 378.53C82.1867 378.53 62.3821 368.996 60.915 366.796C59.448 364.596 59.448 369.73 59.448 369.73Z" fill="#2F2E41"/>
<path d="M31.2469 38.9581C30.3308 37.0732 32.3617 35.0216 34.1855 36.0545L34.2242 36.0768C34.8634 36.465 35.3741 37.033 35.6924 37.7098C36.0107 38.3865 36.1225 39.142 36.0139 39.8819C38.6591 37.2431 36.7097 31.9512 39.5677 29.5445C40.8905 28.4305 43.0379 28.1854 43.7175 26.5952C44.1131 25.6695 43.8441 24.5722 44.1929 23.6278C44.7107 22.2255 46.3651 21.6399 47.8439 21.4194C52.4942 20.7261 57.1973 21.9059 61.7509 23.0766C63.4254 23.5071 65.186 23.9854 66.4056 25.2106C67.6902 26.501 68.1372 28.3759 68.9248 30.0174C69.7125 31.6589 74.8786 31.5106 76.6847 31.2783C77.3126 29.4951 72.6755 29.3607 72.2969 27.5085C71.2623 22.446 74.8653 17.0627 73.0978 12.2072C72.0327 9.28141 69.2504 7.34466 66.4492 5.98436C58.6676 2.24421 49.7844 1.48632 41.4815 3.85416C40.6363 4.04069 39.8466 4.42247 39.1755 4.96895C38.1095 5.96397 37.9118 7.56155 37.2019 8.83521C35.5843 11.7372 31.7479 12.4269 29.161 14.512C25.2432 17.6699 24.8015 23.3719 24.6746 28.4019C24.6108 30.9349 24.5657 33.567 25.6034 35.8788C26.6411 38.1905 29.1002 40.0742 31.5878 39.59C31.4701 39.3987 31.3571 39.1849 31.2469 38.9581Z" fill="#2F2E41"/>
<path d="M35.0739 86.4605C32.2344 84.4902 28.8218 83.5166 25.37 83.692C21.9182 83.8674 18.6219 85.1819 15.9968 87.4298C10.9415 91.7249 5.5033 97.8787 5.90149 104.249C6.63499 115.983 11.036 164.385 16.9041 165.119C22.7721 165.852 44.0437 159.985 44.0437 156.318C44.0437 152.651 38.9092 148.251 38.9092 148.251L45.1434 110.852C46.684 101.611 43.0082 92.1685 35.403 86.6946C35.2941 86.6162 35.1844 86.5382 35.0739 86.4605Z" fill="#575A89"/>
<g opacity="0.5">
<path opacity="0.5" d="M152.029 90.8559C172.888 90.8559 189.797 73.9493 189.797 53.094C189.797 32.2386 172.888 15.332 152.029 15.332C131.169 15.332 114.26 32.2386 114.26 53.094C114.26 73.9493 131.169 90.8559 152.029 90.8559Z" fill="url(#paint0_linear)"/>
</g>
<path d="M152.101 89.8185C172.521 89.8185 189.074 73.2683 189.074 52.8526C189.074 32.4369 172.521 15.8867 152.101 15.8867C131.682 15.8867 115.129 32.4369 115.129 52.8526C115.129 73.2683 131.682 89.8185 152.101 89.8185Z" fill="#F5F5F5"/>
<path d="M172.442 56.4959C172.442 68.7922 163.605 74.8435 152.132 74.8435C140.659 74.8435 130.895 68.7922 130.895 56.4959C130.895 44.1996 140.195 34.2314 151.668 34.2314C163.141 34.2314 172.442 44.1996 172.442 56.4959Z" fill="#333333"/>
<path d="M152.132 89.9647C159.356 89.9763 166.424 87.8615 172.455 83.8841C171.092 76.4401 165.908 76.0156 165.908 76.0156H137.321C137.321 76.0156 132.429 76.4173 130.9 83.2651C137.116 87.6364 144.533 89.9767 152.132 89.9647Z" fill="#006AC8"/>
<path opacity="0.1" d="M145.984 66.9355H157.419V76.4005C157.419 77.8321 156.85 79.2049 155.838 80.2172C154.826 81.2294 153.452 81.7981 152.021 81.7981H151.383C149.951 81.7981 148.578 81.2294 147.566 80.2172C146.553 79.2049 145.984 77.8321 145.984 76.4005V66.9355H145.984Z" fill="black"/>
<path d="M147.014 66.5117H156.389C156.662 66.5117 156.924 66.6202 157.118 66.8133C157.311 67.0065 157.419 67.2684 157.419 67.5415V75.9767C157.419 77.4082 156.85 78.7811 155.838 79.7934C154.826 80.8056 153.452 81.3743 152.021 81.3743H151.383C149.951 81.3743 148.578 80.8056 147.566 79.7934C146.553 78.7811 145.984 77.4082 145.984 75.9767V67.5415C145.984 67.2684 146.093 67.0064 146.286 66.8133C146.479 66.6202 146.741 66.5117 147.014 66.5117V66.5117Z" fill="#FDA57D"/>
<path opacity="0.1" d="M146.006 71.2517C149.691 72.6285 153.748 72.6397 157.441 71.2833V69.8789H146.006V71.2517Z" fill="black"/>
<path d="M151.743 72.018C160.795 72.018 168.133 64.6813 168.133 55.6311C168.133 46.5808 160.795 39.2441 151.743 39.2441C142.692 39.2441 135.354 46.5808 135.354 55.6311C135.354 64.6813 142.692 72.018 151.743 72.018Z" fill="#FDA57D"/>
<path opacity="0.1" d="M132.852 56.702C132.852 56.702 143.058 55.4651 150.79 45.5698C150.79 45.5698 160.996 56.8051 168.11 55.5682C168.11 55.5682 172.234 51.239 168.11 46.9098C163.986 42.5806 160.79 37.1175 155.326 37.8391C149.862 38.5606 143.161 38.8698 140.274 41.4468C137.388 44.0237 132.852 56.702 132.852 56.702Z" fill="black"/>
<path d="M132.852 56.4959C132.852 56.4959 143.058 55.259 150.79 45.3637C150.79 45.3637 160.996 56.599 168.11 55.3621C168.11 55.3621 172.234 51.0329 168.11 46.7037C163.986 42.3745 160.79 36.9115 155.326 37.633C149.862 38.3546 143.161 38.6638 140.274 41.2407C137.388 43.8176 132.852 56.4959 132.852 56.4959Z" fill="#333333"/>
<path d="M135.347 58.4732C136.189 58.4732 136.872 57.1935 136.872 55.615C136.872 54.0365 136.189 52.7568 135.347 52.7568C134.505 52.7568 133.822 54.0365 133.822 55.615C133.822 57.1935 134.505 58.4732 135.347 58.4732Z" fill="#FDA57D"/>
<path d="M168.132 58.4732C168.974 58.4732 169.657 57.1935 169.657 55.615C169.657 54.0365 168.974 52.7568 168.132 52.7568C167.29 52.7568 166.607 54.0365 166.607 55.615C166.607 57.1935 167.29 58.4732 168.132 58.4732Z" fill="#FDA57D"/>
<g opacity="0.5">
<path opacity="0.5" d="M311.98 93.5492C332.839 93.5492 349.748 76.6426 349.748 55.7873C349.748 34.932 332.839 18.0254 311.98 18.0254C291.121 18.0254 274.211 34.932 274.211 55.7873C274.211 76.6426 291.121 93.5492 311.98 93.5492Z" fill="url(#paint1_linear)"/>
</g>
<path d="M312.053 92.5118C332.472 92.5118 349.025 75.9616 349.025 55.5459C349.025 35.1303 332.472 18.5801 312.053 18.5801C291.633 18.5801 275.08 35.1303 275.08 55.5459C275.08 75.9616 291.633 92.5118 312.053 92.5118Z" fill="#F5F5F5"/>
<path d="M312.083 92.6581C319.307 92.6697 326.376 90.5549 332.406 86.5775C331.044 79.1335 325.859 78.709 325.859 78.709H297.272C297.272 78.709 292.38 79.1106 290.852 85.9585C297.067 90.3298 304.484 92.6701 312.083 92.6581Z" fill="#006AC8"/>
<path d="M311.695 72.6101C321.551 72.6101 329.541 64.6216 329.541 54.7674C329.541 44.9132 321.551 36.9248 311.695 36.9248C301.839 36.9248 293.85 44.9132 293.85 54.7674C293.85 64.6216 301.839 72.6101 311.695 72.6101Z" fill="#72351C"/>
<path opacity="0.1" d="M305.936 69.6289H317.37V79.0939C317.37 80.5254 316.802 81.8983 315.789 82.9106C314.777 83.9228 313.404 84.4915 311.972 84.4915H311.334C309.902 84.4915 308.529 83.9228 307.517 82.9106C306.504 81.8983 305.936 80.5254 305.936 79.0939V69.6289Z" fill="black"/>
<path d="M306.965 69.2051H316.34C316.614 69.2051 316.876 69.3136 317.069 69.5067C317.262 69.6998 317.37 69.9617 317.37 70.2348V78.67C317.37 80.1016 316.802 81.4745 315.789 82.4867C314.777 83.4989 313.404 84.0676 311.972 84.0676H311.334C309.902 84.0676 308.529 83.4989 307.517 82.4867C306.504 81.4745 305.936 80.1016 305.936 78.67V70.2348C305.936 69.9617 306.044 69.6998 306.237 69.5067C306.43 69.3136 306.692 69.2051 306.965 69.2051Z" fill="#FDA57D"/>
<path opacity="0.1" d="M305.957 73.9461C309.642 75.3228 313.699 75.334 317.392 73.9777V72.5732H305.957V73.9461Z" fill="black"/>
<path d="M311.695 74.7114C320.746 74.7114 328.084 67.3747 328.084 58.3244C328.084 49.2742 320.746 41.9375 311.695 41.9375C302.643 41.9375 295.305 49.2742 295.305 58.3244C295.305 67.3747 302.643 74.7114 311.695 74.7114Z" fill="#FDA57D"/>
<path opacity="0.1" d="M300.02 43.4189C300.02 43.4189 306.927 57.4373 326.412 49.2943L321.876 42.182L313.834 39.2959L300.02 43.4189Z" fill="black"/>
<path d="M300.02 43.2119C300.02 43.2119 306.927 57.2303 326.412 49.0873L321.876 41.975L313.834 39.0889L300.02 43.2119Z" fill="#72351C"/>
<path d="M299.959 42.2654C300.425 40.8238 301.23 39.515 302.306 38.4489C305.53 35.2627 310.815 34.59 313.526 30.957C313.674 31.2141 313.766 31.4992 313.796 31.794C313.827 32.0888 313.795 32.3867 313.704 32.6686C313.612 32.9505 313.463 33.21 313.265 33.4306C313.067 33.6511 312.825 33.8277 312.554 33.949C315.148 33.9322 318.161 33.7049 319.629 31.5668C319.992 32.4115 320.108 33.342 319.963 34.2499C319.818 35.1579 319.418 36.006 318.81 36.6957C321.112 36.8002 323.568 38.3623 323.717 40.6615C323.816 42.1933 322.856 43.6435 321.597 44.522C320.289 45.3338 318.834 45.8815 317.315 46.1342C312.939 47.099 297.104 51.1425 299.959 42.2654Z" fill="#72351C"/>
<path d="M328.085 58.4678H327.65L319.197 65.9923C311.052 62.1785 305.073 65.9923 305.073 65.9923L296.206 58.777L295.312 58.8893C295.434 63.1902 297.242 67.2708 300.347 70.2501C303.451 73.2294 307.603 74.8683 311.906 74.813C316.209 74.7576 320.318 73.0125 323.345 69.9543C326.372 66.8961 328.074 62.7703 328.085 58.4678V58.4678ZM311.671 68.8785C308.482 68.8785 305.897 68.2324 305.897 67.4354C305.897 66.6384 308.482 65.9923 311.671 65.9923C314.859 65.9923 317.444 66.6384 317.444 67.4354C317.444 68.2324 314.859 68.8785 311.671 68.8785Z" fill="#72351C"/>
<path d="M295.3 61.1666C296.142 61.1666 296.825 59.8869 296.825 58.3084C296.825 56.7298 296.142 55.4502 295.3 55.4502C294.458 55.4502 293.775 56.7298 293.775 58.3084C293.775 59.8869 294.458 61.1666 295.3 61.1666Z" fill="#FDA57D"/>
<path d="M328.083 61.1666C328.925 61.1666 329.608 59.8869 329.608 58.3084C329.608 56.7298 328.925 55.4502 328.083 55.4502C327.241 55.4502 326.559 56.7298 326.559 58.3084C326.559 59.8869 327.241 61.1666 328.083 61.1666Z" fill="#FDA57D"/>
<g opacity="0.5">
<path opacity="0.5" d="M232.009 155.502C252.868 155.502 269.778 138.596 269.778 117.74C269.778 96.8851 252.868 79.9785 232.009 79.9785C211.15 79.9785 194.24 96.8851 194.24 117.74C194.24 138.596 211.15 155.502 232.009 155.502Z" fill="url(#paint2_linear)"/>
</g>
<path d="M232.008 154.501C252.427 154.501 268.98 137.951 268.98 117.535C268.98 97.1195 252.427 80.5693 232.008 80.5693C211.588 80.5693 195.035 97.1195 195.035 117.535C195.035 137.951 211.588 154.501 232.008 154.501Z" fill="#F5F5F5"/>
<path d="M217.579 117.864C217.579 117.864 213.387 138.511 211.1 137.368C211.1 137.368 233.165 156.423 252.646 137.368C252.646 137.368 249.216 122.818 244.261 117.864H217.579Z" fill="#333333"/>
<path d="M232.112 154.611C239.337 154.623 246.405 152.508 252.435 148.531C251.073 141.087 245.889 140.662 245.889 140.662H217.301C217.301 140.662 212.409 141.064 210.881 147.912C217.096 152.283 224.513 154.623 232.112 154.611Z" fill="#006AC8"/>
<path d="M231.724 133.108C240.776 133.108 248.114 125.771 248.114 116.721C248.114 107.671 240.776 100.334 231.724 100.334C222.672 100.334 215.334 107.671 215.334 116.721C215.334 125.771 222.672 133.108 231.724 133.108Z" fill="#333333"/>
<path opacity="0.1" d="M225.965 131.582H237.4V141.047C237.4 142.479 236.831 143.851 235.818 144.864C234.806 145.876 233.433 146.445 232.001 146.445H231.363C229.932 146.445 228.558 145.876 227.546 144.864C226.534 143.851 225.965 142.479 225.965 141.047V131.582Z" fill="black"/>
<path d="M226.995 131.158H236.37C236.643 131.158 236.905 131.267 237.098 131.46C237.291 131.653 237.4 131.915 237.4 132.188V140.623C237.4 142.055 236.831 143.428 235.818 144.44C234.806 145.452 233.433 146.021 232.001 146.021H231.363C229.932 146.021 228.558 145.452 227.546 144.44C226.534 143.428 225.965 142.055 225.965 140.623V132.188C225.965 131.915 226.073 131.653 226.267 131.46C226.46 131.267 226.722 131.158 226.995 131.158H226.995Z" fill="#BE7C5E"/>
<path opacity="0.1" d="M225.986 135.899C229.672 137.276 233.728 137.287 237.421 135.931V134.526H225.986V135.899Z" fill="black"/>
<path d="M231.724 136.664C240.776 136.664 248.114 129.328 248.114 120.278C248.114 111.227 240.776 103.891 231.724 103.891C222.672 103.891 215.334 111.227 215.334 120.278C215.334 129.328 222.672 136.664 231.724 136.664Z" fill="#BE7C5E"/>
<path d="M216.055 114.053H247.31C247.31 114.053 244.642 101.435 232.826 102.239C221.01 103.044 216.055 114.053 216.055 114.053Z" fill="#333333"/>
<path d="M215.673 122.437C216.515 122.437 217.198 121.157 217.198 119.579C217.198 118 216.515 116.721 215.673 116.721C214.831 116.721 214.148 118 214.148 119.579C214.148 121.157 214.831 122.437 215.673 122.437Z" fill="#BE7C5E"/>
<path d="M247.691 122.437C248.533 122.437 249.215 121.157 249.215 119.579C249.215 118 248.533 116.721 247.691 116.721C246.849 116.721 246.166 118 246.166 119.579C246.166 121.157 246.849 122.437 247.691 122.437Z" fill="#BE7C5E"/>
<path opacity="0.1" d="M216.055 114.477H247.31C247.31 114.477 244.642 101.858 232.826 102.663C221.01 103.467 216.055 114.477 216.055 114.477Z" fill="black"/>
<path d="M232.008 83.322C238.817 83.322 245.472 85.3406 251.133 89.1226C256.795 92.9045 261.207 98.28 263.812 104.569C266.418 110.858 267.1 117.779 265.771 124.455C264.443 131.132 261.164 137.265 256.35 142.078C251.536 146.892 245.402 150.17 238.724 151.498C232.046 152.826 225.125 152.144 218.834 149.539C212.544 146.934 207.168 142.522 203.385 136.862C199.602 131.202 197.583 124.548 197.583 117.74C197.583 113.221 198.474 108.745 200.204 104.569C201.934 100.393 204.47 96.599 207.666 93.403C210.863 90.2069 214.658 87.6717 218.834 85.942C223.011 84.2123 227.487 83.322 232.008 83.322ZM232.008 74.8223C223.518 74.8223 215.219 77.3394 208.16 82.0553C201.101 86.7712 195.599 93.4741 192.35 101.316C189.101 109.159 188.251 117.788 189.907 126.113C191.563 134.439 195.651 142.086 201.655 148.088C207.658 154.09 215.307 158.178 223.634 159.834C231.96 161.49 240.591 160.64 248.435 157.392C256.279 154.143 262.983 148.642 267.7 141.585C272.417 134.527 274.934 126.229 274.934 117.74C274.921 106.362 270.395 95.4529 262.347 87.4069C254.3 79.361 243.389 74.8351 232.008 74.8223Z" fill="#CCCCCC"/>
<path d="M235.717 64.7891H225.654V75.3794H235.717V64.7891Z" fill="#CCCCCC"/>
<path d="M253.66 69.0796L248.205 78.1572L256.83 83.3389L262.286 74.2613L253.66 69.0796Z" fill="#CCCCCC"/>
<path d="M275.096 86.4233L265.832 91.5576L270.71 100.357L279.975 95.2227L275.096 86.4233Z" fill="#CCCCCC"/>
<path d="M271.311 134.624L265.979 143.156L274.961 148.768L280.294 140.236L271.311 134.624Z" fill="#CCCCCC"/>
<path d="M188.921 86.4233L184.043 95.2227L193.307 100.357L198.186 91.5576L188.921 86.4233Z" fill="#CCCCCC"/>
<path d="M192.707 134.623L183.725 140.235L189.057 148.767L198.04 143.155L192.707 134.623Z" fill="#CCCCCC"/>
<path d="M210.356 69.08L201.73 74.2617L207.186 83.3394L215.811 78.1577L210.356 69.08Z" fill="#CCCCCC"/>
<path d="M235.717 160.103H225.654V170.693H235.717V160.103Z" fill="#CCCCCC"/>
<path d="M256.83 152.143L248.205 157.324L253.66 166.402L262.286 161.22L256.83 152.143Z" fill="#CCCCCC"/>
<path d="M207.186 152.142L201.73 161.22L210.356 166.401L215.811 157.324L207.186 152.142Z" fill="#CCCCCC"/>
<path d="M190.169 113.505H177.988V122.507H190.169V113.505Z" fill="#CCCCCC"/>
<path d="M273.848 122.507H286.029V113.505H273.848V122.507Z" fill="#CCCCCC"/>
<path d="M311.981 21.3689C318.789 21.3689 325.445 23.3875 331.106 27.1695C336.767 30.9514 341.179 36.3268 343.785 42.616C346.391 48.9051 347.072 55.8255 345.744 62.5021C344.416 69.1786 341.137 75.3114 336.323 80.1249C331.508 84.9384 325.374 88.2164 318.697 89.5445C312.019 90.8725 305.097 90.1909 298.807 87.5859C292.517 84.9809 287.14 80.5693 283.358 74.9093C279.575 69.2492 277.556 62.5947 277.556 55.7874C277.556 46.659 281.183 37.9046 287.639 31.4499C294.095 24.9952 302.851 21.3689 311.981 21.3689ZM311.981 12.8691C303.491 12.8691 295.191 15.3863 288.132 20.1022C281.073 24.8181 275.571 31.521 272.322 39.3633C269.073 47.2056 268.223 55.835 269.88 64.1603C271.536 72.4856 275.624 80.1329 281.627 86.1351C287.631 92.1374 295.279 96.2249 303.606 97.8809C311.933 99.537 320.564 98.687 328.408 95.4387C336.251 92.1903 342.956 86.6894 347.672 79.6315C352.389 72.5736 354.907 64.2758 354.907 55.7874C354.894 44.4087 350.367 33.4998 342.32 25.4538C334.272 17.4079 323.361 12.882 311.981 12.8691Z" fill="#CCCCCC"/>
<path d="M315.688 2.83594H305.625V13.4262H315.688V2.83594Z" fill="#CCCCCC"/>
<path d="M333.631 7.12645L328.176 16.2041L336.801 21.3858L342.257 12.3081L333.631 7.12645Z" fill="#CCCCCC"/>
<path d="M355.067 24.4702L345.803 29.6045L350.681 38.4038L359.945 33.2696L355.067 24.4702Z" fill="#CCCCCC"/>
<path d="M351.282 72.6701L345.949 81.2021L354.932 86.8142L360.264 78.2821L351.282 72.6701Z" fill="#CCCCCC"/>
<path d="M268.894 24.4702L264.016 33.2695L273.28 38.4038L278.158 29.6044L268.894 24.4702Z" fill="#CCCCCC"/>
<path d="M272.678 72.6702L263.695 78.2822L269.028 86.8143L278.01 81.2022L272.678 72.6702Z" fill="#CCCCCC"/>
<path d="M290.326 7.12692L281.701 12.3086L287.157 21.3862L295.782 16.2046L290.326 7.12692Z" fill="#CCCCCC"/>
<path d="M315.688 98.1484H305.625V108.739H315.688V98.1484Z" fill="#CCCCCC"/>
<path d="M336.805 90.1884L328.18 95.3701L333.635 104.448L342.26 99.2661L336.805 90.1884Z" fill="#CCCCCC"/>
<path d="M287.157 90.1889L281.701 99.2666L290.327 104.448L295.782 95.3706L287.157 90.1889Z" fill="#CCCCCC"/>
<path d="M270.14 51.5518H257.959V60.5535H270.14V51.5518Z" fill="#CCCCCC"/>
<path d="M353.819 60.5537H366V51.552H353.819V60.5537Z" fill="#CCCCCC"/>
<path d="M152.016 18.7215C152.42 18.7215 152.825 18.7285 153.232 18.7426C162.251 19.056 170.786 22.8978 177 29.4409C183.214 35.9841 186.61 44.7053 186.456 53.7268C186.302 62.7484 182.611 71.3488 176.178 77.6765C169.745 84.0042 161.083 87.5531 152.059 87.5591C151.655 87.5591 151.249 87.5521 150.843 87.538C141.824 87.2246 133.289 83.3828 127.075 76.8396C120.861 70.2965 117.465 61.5753 117.619 52.5538C117.773 43.5322 121.463 34.9318 127.897 28.6041C134.33 22.2764 142.991 18.7275 152.016 18.7215ZM152.018 10.2217V18.7215L152.018 10.2217C140.764 10.2269 129.962 14.6507 121.938 22.5405C113.914 30.4303 109.31 41.1551 109.118 52.4054C108.925 63.6557 113.159 74.5317 120.908 82.6915C128.657 90.8513 139.301 95.6423 150.548 96.0327C151.05 96.0501 151.558 96.0589 152.059 96.0589C163.313 96.0533 174.114 91.6291 182.138 83.7392C190.161 75.8492 194.765 65.1245 194.957 53.8743C195.15 42.6241 190.916 31.7483 183.167 23.5887C175.418 15.4291 164.774 10.6383 153.527 10.2479C153.025 10.2305 152.517 10.2217 152.018 10.2217Z" fill="#CCCCCC"/>
<path d="M147.524 6.36803e-05L147.156 10.584L157.213 10.933L157.58 0.349116L147.524 6.36803e-05Z" fill="#CCCCCC"/>
<path d="M175.367 5.26063L169.6 14.1436L178.04 19.6213L183.807 10.7384L175.367 5.26063Z" fill="#CCCCCC"/>
<path d="M196.185 23.3367L186.748 28.1465L191.318 37.1098L200.755 32.2999L196.185 23.3367Z" fill="#CCCCCC"/>
<path d="M190.729 71.3759L185.104 79.7178L193.886 85.638L199.511 77.2961L190.729 71.3759Z" fill="#CCCCCC"/>
<path d="M110.064 20.3469L104.883 28.9717L113.963 34.4242L119.144 25.7994L110.064 20.3469Z" fill="#CCCCCC"/>
<path d="M112.174 68.6493L103.002 73.9463L108.035 82.6581L117.207 77.3611L112.174 68.6493Z" fill="#CCCCCC"/>
<path d="M132.085 3.75736L123.285 8.63672L128.422 17.8981L137.222 13.0188L132.085 3.75736Z" fill="#CCCCCC"/>
<path d="M144.215 95.2549L143.848 105.839L153.904 106.188L154.272 95.604L144.215 95.2549Z" fill="#CCCCCC"/>
<path d="M175.651 88.3824L166.852 93.2617L171.989 102.523L180.789 97.6438L175.651 88.3824Z" fill="#CCCCCC"/>
<path d="M126.037 86.66L120.27 95.543L128.71 101.021L134.477 92.1378L126.037 86.66Z" fill="#CCCCCC"/>
<path d="M110.371 47.4548L98.1973 47.0322L97.8849 56.0286L110.059 56.4511L110.371 47.4548Z" fill="#CCCCCC"/>
<path d="M193.686 59.3538L205.859 59.7764L206.172 50.78L193.998 50.3575L193.686 59.3538Z" fill="#CCCCCC"/>
<defs>
<linearGradient id="paint0_linear" x1="152.029" y1="90.8559" x2="152.029" y2="15.332" gradientUnits="userSpaceOnUse">
<stop stop-color="#808080" stop-opacity="0.25"/>
<stop offset="0.53514" stop-color="#808080" stop-opacity="0.12"/>
<stop offset="1" stop-color="#808080" stop-opacity="0.1"/>
</linearGradient>
<linearGradient id="paint1_linear" x1="47399.3" y1="14148.8" x2="47399.3" y2="2740.84" gradientUnits="userSpaceOnUse">
<stop stop-color="#808080" stop-opacity="0.25"/>
<stop offset="0.53514" stop-color="#808080" stop-opacity="0.12"/>
<stop offset="1" stop-color="#808080" stop-opacity="0.1"/>
</linearGradient>
<linearGradient id="paint2_linear" x1="35239.5" y1="23568.9" x2="35239.5" y2="12160.9" gradientUnits="userSpaceOnUse">
<stop stop-color="#808080" stop-opacity="0.25"/>
<stop offset="0.53514" stop-color="#808080" stop-opacity="0.12"/>
<stop offset="1" stop-color="#808080" stop-opacity="0.1"/>
</linearGradient>
</defs>
</svg>
