<svg xmlns="http://www.w3.org/2000/svg" viewBox="0 0 150 150"><defs><style>.cls-3{fill:#f78000}.cls-4{fill:#583cdb}.cls-5{fill:#351a9e}.cls-12,.cls-5{opacity:.37}.cls-12{fill:#fff}.cls-8{fill:#ff9800}</style></defs><g id="Layer_2" data-name="Layer 2"><g id="features"><circle cx="75" cy="75" r="75" fill="#6c37f6" opacity=".1"/><ellipse cx="76.07" cy="139.28" rx="30.27" ry="4.56" fill="#6e51b8" opacity=".5"/><path class="cls-3" d="M100.47 104.42s-13.11 4-22.28-1-16.3-6.41-18-5.12 18.29 23.4 40.28 6.12z"/><path class="cls-4" d="M115.85 121.52l-20.43.63c-5.64-.33-12.12-.22-19 0s-13.48.5-19.19 1.16l-20.95.62v4.25c0 2.71 18.09 4.35 40.22 3.66 21.91-.68 39.49-3.53 39.45-6.2v-.16z"/><path class="cls-4" d="M115.85 121.57c0 2.66-17.53 5.35-39.43 6-22.11.67-40.18-1-40.18-3.7s18-5.41 40.11-6c21.85-.63 39.46 1.03 39.5 3.7z"/><path class="cls-5" d="M115.85 121.57c0 2.66-17.53 5.35-39.43 6-22.11.67-40.18-1-40.18-3.7s18-5.41 40.11-6c21.85-.63 39.46 1.03 39.5 3.7z"/><path d="M90.12 58.77L80 66.73l10.33 7.69a46.46 46.46 0 0118.6 36.76l.14 10c0 .19-.16.35-.44.54L77.42 121l-2.1.06-31.67 2.56c-.3-.18-.39-.33-.39-.52v-10.17A48.21 48.21 0 0161.62 75l10.23-8-10.33-7.79a45.56 45.56 0 01-18.4-36.57V12.32l31.45 1.33h2.07L107.51 12l.14 10.18a45.79 45.79 0 01-17.53 36.59z" opacity=".24" fill="#583cdb"/><path d="M57.37 27.48a78.7 78.7 0 01.33-11s-1.74-4-7.86-2.17a39.22 39.22 0 00-2.15 13.3z" opacity=".3" fill="#fff"/><path class="cls-5" d="M109 121.19c0 .19-.14.38-.42.56-2.53 1.67-16 3.28-32.27 3.76s-30.14-.33-32.76-1.87c-.29-.17-.45-.35-.45-.54 0-1.88 14.9-3.82 33.16-4.33s32.74.57 32.74 2.42z"/><path class="cls-8" d="M68.41 47.09l-12 .9 1 1.68S64.61 60 75.93 65.54c11.19-5.89 18.14-16.35 18.14-16.35l1-1.69z"/><path class="cls-3" d="M95 47.17c0 1-32.07 16.68-19.33 5.8 9.46-8.09-19.32-4.28-19.33-5.3s8.7-2 19.4-2.1S95 46.16 95 47.17z"/><path class="cls-8" d="M103.25 121.34c-9.6 2.15-24.56 2.81-26.73 2.87H76c-1.16 0-5.94.11-11.65-.06A127.33 127.33 0 0149 122.92v-1.19c11-50.07 17-2.55 51.44-17.26a10.44 10.44 0 011.41 4c.42 2.07.72 4.59.94 6.85.34 3.27.46 6.02.46 6.02z"/><path class="cls-4" d="M114.14 12l-20 .12c-5.52-.44-11.87-.5-18.64-.46s-13.19.17-18.78.67l-20.49.11v3.98c0 2.6 17.69 4.62 39.34 4.46C97 20.73 114.24 18.52 114.2 16z"/><path class="cls-5" d="M114.14 12l-20 .12c-5.52-.44-11.87-.5-18.64-.46s-13.19.17-18.78.67l-20.49.11v3.98c0 2.6 17.69 4.62 39.34 4.46C97 20.73 114.24 18.52 114.2 16z"/><path d="M114.14 12c0 2.55-17.16 4.73-38.59 4.86C53.92 17 36.24 15 36.24 12.38s17.65-4.77 39.24-4.86c21.39-.09 38.62 1.91 38.66 4.48z" fill="#2d1683"/><path class="cls-3" d="M103.25 121.34c-9.6 2.15-24.56 2.81-26.73 2.87H76c-1.16 0-5.94.11-11.65-.06A127.33 127.33 0 0149 122.92a11.18 11.18 0 010-1.19c5.41 0 16.65-.39 21.52-3.56 6.5-4.22 11.93-4.49 19-3.34 5.83.94 10-2.32 12.29-6.35a68.12 68.12 0 01.95 6.85c.37 3.26.49 6.01.49 6.01z"/><g opacity=".37"><path d="M57.52 30.33l-9.66.09C50 51.67 70.78 63.85 70.78 63.85l4.93-.08c-13.6-5.31-17.36-21.54-18.19-33.44z" fill="#fff"/></g><path class="cls-12" d="M58.14 119.82l-8.73.25a38.85 38.85 0 01-1.53-11.28l9.84-.26a82.92 82.92 0 00.42 11.29zM57.84 105.59l-9.8.25c2.07-22 22.79-35 22.79-35l4.93-.08c-13.56 6.02-17.18 22.6-17.92 34.83z"/><circle class="cls-8" cx="75.52" cy="69.02" r=".52"/><circle class="cls-8" cx="78.66" cy="74.48" r=".52"/><circle class="cls-8" cx="75" cy="79.78" r=".52"/><circle class="cls-8" cx="79.18" cy="86.25" r=".52"/><circle class="cls-8" cx="73.96" cy="92.99" r=".52"/><circle class="cls-8" cx="80.26" cy="98.09" r=".52"/></g></g></svg>