<svg xmlns="http://www.w3.org/2000/svg" viewBox="0 0 150 150"><defs><style>.cls-1{fill:#f1f1f1;}.cls-2{fill:#d7d8d8;}.cls-3{fill:#8297cd;}.cls-4{fill:#546183;}.cls-5{fill:#e06542;}.cls-6{fill:#d05135;}.cls-7{fill:#c6e7fa;}.cls-8{fill:#fff;opacity:0.41;}</style></defs><title>Asset 19</title><g id="Layer_2" data-name="Layer 2"><g id="veicle"><circle class="cls-1" cx="75" cy="75" r="75"/><ellipse class="cls-2" cx="75" cy="133.85" rx="28.85" ry="11.54"/><rect class="cls-3" x="19.29" y="47.9" width="110.72" height="15.78" rx="3.57"/><path class="cls-4" d="M126.66,60.83a17.85,17.85,0,0,1-4.81-12.93H28.4a22,22,0,0,1-6.75,13.82,7.32,7.32,0,0,0,5,2h96a7.29,7.29,0,0,0,5-1.95C127.29,61.45,127,61.15,126.66,60.83Z"/><path class="cls-5" d="M119.36,78.77c0,24.54-19.9,54.2-44.43,54.2h0c-23.61,0-42.75-28.91-42.75-52.51V27.62a9,9,0,0,1,6.36-8.56L74.88,8.11l38,11a9,9,0,0,1,6.46,8.58Z"/><path class="cls-6" d="M48.57,92.93s-9.74-52.8,0-76.89l-10,3a9,9,0,0,0-6.36,8.56V80.46c0,23.6,19.14,52.51,42.75,52.51h0c21.6-1.75,28.24-14.34,36.33-25.35C75.77,137.57,51.55,106.16,48.57,92.93Z"/><rect class="cls-7" x="41.34" y="47.9" width="67.08" height="25.77"/><rect class="cls-3" x="41.34" y="47.9" width="67.08" height="25.77"/><polygon class="cls-8" points="108.42 73.67 41.34 73.67 107.03 71.76 108.42 47.9 108.42 73.67"/><polygon class="cls-4" points="43.48 49.71 41.34 73.67 41.34 47.9 108.42 47.9 43.48 49.71"/><polygon class="cls-8" points="105.21 71.82 89.6 72.27 66.2 49.08 82.43 48.63 105.21 71.82"/><path class="cls-8" d="M73.45,73.67h-4L55.4,60.23a1.36,1.36,0,0,1,.94-2.35h0a1.37,1.37,0,0,1,.94.38Z"/><circle class="cls-4" cx="43.48" cy="37.98" r="2.15"/><circle class="cls-4" cx="51.55" cy="37.98" r="2.15"/><circle class="cls-4" cx="59.62" cy="37.98" r="2.15"/><circle class="cls-4" cx="67.68" cy="37.98" r="2.15"/><circle class="cls-4" cx="75.75" cy="37.98" r="2.15"/><circle class="cls-4" cx="83.81" cy="37.98" r="2.15"/><circle class="cls-4" cx="91.88" cy="37.98" r="2.15"/><circle class="cls-4" cx="99.95" cy="37.98" r="2.15"/><circle class="cls-4" cx="108.01" cy="37.98" r="2.15"/><circle class="cls-4" cx="43.48" cy="81.33" r="2.15"/><circle class="cls-4" cx="51.55" cy="81.33" r="2.15"/><circle class="cls-4" cx="59.62" cy="81.33" r="2.15"/><circle class="cls-4" cx="67.68" cy="81.33" r="2.15"/><circle class="cls-4" cx="75.75" cy="81.33" r="2.15"/><circle class="cls-4" cx="83.81" cy="81.33" r="2.15"/><circle class="cls-4" cx="91.88" cy="81.33" r="2.15"/><circle class="cls-4" cx="99.95" cy="81.33" r="2.15"/><circle class="cls-4" cx="108.01" cy="81.33" r="2.15"/></g></g></svg>