<svg xmlns="http://www.w3.org/2000/svg" xmlns:xlink="http://www.w3.org/1999/xlink" viewBox="0 0 155.13 164.8"><defs><style>.cls-1{fill:none;}.cls-2{isolation:isolate;}.cls-3{fill:#e06542;}.cls-4{fill:#cf5235;}.cls-5{fill:#c6e8fb;}.cls-6{fill:#cbdbe6;mix-blend-mode:multiply;}.cls-7{fill:#e58c6a;}.cls-8{clip-path:url(#clip-path);}.cls-9{fill:#1d2b50;}.cls-10{fill:#da3819;}.cls-11{fill:#942917;}.cls-12{fill:#c8aed4;}.cls-13{fill:#aa85bb;}.cls-14{fill:#482775;}.cls-15{fill:#e27b10;}.cls-16{fill:#f3fafb;}.cls-17{fill:#233160;}.cls-18{fill:#243778;opacity:0.26;}.cls-19{fill:#26519f;opacity:0.28;}.cls-20{fill:#1d2a4e;}.cls-21{fill:#d17415;}.cls-22{fill:#a9d7d6;}.cls-23{fill:#b83e26;}.cls-24{fill:#a12b1c;}</style><clipPath id="clip-path"><circle class="cls-1" cx="75" cy="85.32" r="54.35"/></clipPath></defs><title>Asset 29</title><g class="cls-2"><g id="Layer_2" data-name="Layer 2"><g id="veicle"><rect class="cls-1" width="150" height="150"/><circle class="cls-3" cx="75" cy="80.11" r="67.71"/><circle class="cls-3" cx="74.68" cy="10.49" r="8.31"/><circle class="cls-3" cx="62.71" cy="15.49" r="8.31"/><circle class="cls-3" cx="87.56" cy="15.49" r="8.31"/><circle class="cls-4" cx="74.75" cy="12.99" r="6.58"/><circle class="cls-4" cx="63.11" cy="16.95" r="6.58"/><circle class="cls-4" cx="86.89" cy="16.95" r="6.58"/><path class="cls-4" d="M75,15.49a66.17,66.17,0,1,0,66.16,66.17A66.17,66.17,0,0,0,75,15.49Zm0,121.88a53.2,53.2,0,1,1,53.2-53.2A53.2,53.2,0,0,1,75,137.37Z"/><circle class="cls-5" cx="75" cy="85.32" r="54.35"/><path class="cls-6" d="M75,31c-1.13,0-2.25,0-3.36.11a54.34,54.34,0,0,1,0,108.47c1.11.07,2.23.12,3.36.12A54.35,54.35,0,0,0,75,31Z"/><path class="cls-7" d="M75.21,143.49H75l-2,0a.48.48,0,0,1-.47-.5.53.53,0,0,1,.5-.47l2,0h.21a.49.49,0,0,1,.48.49A.48.48,0,0,1,75.21,143.49Zm9.76-.82a.49.49,0,0,1-.48-.41.5.5,0,0,1,.4-.56c.64-.1,1.28-.22,1.91-.35a.5.5,0,0,1,.58.38.49.49,0,0,1-.38.57q-1,.19-2,.36Zm-21.67-.32h-.09c-.65-.12-1.29-.26-1.94-.41a.48.48,0,0,1-.36-.58.49.49,0,0,1,.58-.37c.63.15,1.27.29,1.91.41a.48.48,0,0,1-.1,1Zm33-2.75a.49.49,0,0,1-.46-.32.48.48,0,0,1,.28-.62q.92-.34,1.8-.72a.49.49,0,0,1,.64.26.48.48,0,0,1-.26.63c-.6.26-1.22.5-1.83.73A.38.38,0,0,1,96.32,139.6ZM52.05,139a.43.43,0,0,1-.19,0c-.61-.25-1.22-.52-1.82-.79a.49.49,0,0,1-.24-.64.48.48,0,0,1,.64-.24c.6.27,1.19.52,1.79.77a.49.49,0,0,1-.18.94Zm54.78-4.59a.49.49,0,0,1-.41-.22.48.48,0,0,1,.15-.67l1.63-1.06a.47.47,0,0,1,.67.13.48.48,0,0,1-.13.67c-.54.37-1.1.73-1.65,1.08A.51.51,0,0,1,106.83,134.36Zm-65.15-1a.43.43,0,0,1-.27-.08c-.55-.37-1.09-.74-1.63-1.13a.47.47,0,0,1-.11-.67.48.48,0,0,1,.68-.11c.52.37,1.06.74,1.6,1.1a.49.49,0,0,1,.13.68A.48.48,0,0,1,41.68,133.39Zm74.45-6.21a.52.52,0,0,1-.36-.16.49.49,0,0,1,0-.68c.48-.45.94-.9,1.4-1.36a.48.48,0,0,1,.68,0,.49.49,0,0,1,0,.68c-.47.47-.94.93-1.42,1.38A.49.49,0,0,1,116.13,127.18Zm-83.54-1.25a.49.49,0,0,1-.34-.14c-.47-.47-.93-.94-1.38-1.42a.49.49,0,0,1,.71-.67c.44.48.9.94,1.36,1.4a.51.51,0,0,1,0,.69A.52.52,0,0,1,32.59,125.93Zm91.27-7.61a.52.52,0,0,1-.29-.09.48.48,0,0,1-.11-.68c.38-.53.75-1.06,1.11-1.6a.49.49,0,0,1,.67-.14.49.49,0,0,1,.13.68c-.36.55-.74,1.09-1.12,1.63A.47.47,0,0,1,123.86,118.32Zm-98.73-1.47a.46.46,0,0,1-.4-.21c-.37-.55-.73-1.1-1.08-1.66a.49.49,0,0,1,.16-.67.49.49,0,0,1,.67.15c.34.56.69,1.1,1.05,1.64a.48.48,0,0,1-.13.67A.45.45,0,0,1,25.13,116.85Zm104.59-8.72a.46.46,0,0,1-.2,0,.48.48,0,0,1-.25-.64c.27-.59.53-1.19.78-1.79a.48.48,0,1,1,.89.37c-.25.61-.51,1.22-.78,1.82A.49.49,0,0,1,129.72,108.13ZM19.58,106.5a.49.49,0,0,1-.45-.3c-.25-.61-.49-1.22-.73-1.83a.5.5,0,0,1,.29-.63.48.48,0,0,1,.62.28c.23.61.47,1.21.72,1.81a.49.49,0,0,1-.26.63A.46.46,0,0,1,19.58,106.5ZM133.47,97h-.11a.49.49,0,0,1-.37-.58c.15-.63.28-1.26.41-1.9a.48.48,0,1,1,.95.18c-.13.65-.26,1.3-.41,1.94A.48.48,0,0,1,133.47,97ZM16.17,95.26a.49.49,0,0,1-.48-.39c-.13-.65-.24-1.3-.35-2a.48.48,0,1,1,.95-.16c.11.65.23,1.28.35,1.92a.49.49,0,0,1-.38.57ZM135,85.32h0a.49.49,0,0,1-.47-.5q0-.9,0-1.8v-.15a.49.49,0,1,1,1,0V83q0,.92,0,1.83A.48.48,0,0,1,135,85.32ZM15,83.54a.47.47,0,0,1-.49-.46V83q0-1,0-1.92a.48.48,0,0,1,.5-.47.48.48,0,0,1,.47.5q0,.95,0,1.89A.52.52,0,0,1,15,83.54Zm119.15-10a.49.49,0,0,1-.48-.4c-.11-.65-.22-1.29-.35-1.92a.48.48,0,0,1,.95-.19c.13.64.25,1.29.36,1.94a.49.49,0,0,1-.4.56Zm-118-1.73h-.1a.48.48,0,0,1-.38-.57c.13-.64.27-1.29.41-1.93a.49.49,0,0,1,.59-.36.48.48,0,0,1,.36.58c-.15.63-.28,1.26-.41,1.9A.48.48,0,0,1,16.15,71.86Zm115-9.62a.49.49,0,0,1-.45-.31q-.35-.91-.72-1.8a.49.49,0,0,1,.9-.38c.25.61.49,1.22.73,1.84a.48.48,0,0,1-.28.62ZM19.54,60.61a.58.58,0,0,1-.18,0,.49.49,0,0,1-.27-.64c.26-.61.52-1.21.79-1.82a.49.49,0,1,1,.89.41c-.27.59-.53,1.18-.78,1.79A.5.5,0,0,1,19.54,60.61Zm106.34-8.88a.48.48,0,0,1-.41-.23c-.35-.55-.7-1.1-1.06-1.63a.49.49,0,1,1,.81-.54c.36.54.72,1.09,1.07,1.65a.48.48,0,0,1-.15.67A.5.5,0,0,1,125.88,51.73ZM25.09,50.23a.5.5,0,0,1-.27-.08.48.48,0,0,1-.14-.67c.37-.55.74-1.1,1.13-1.63a.49.49,0,0,1,.68-.12.5.5,0,0,1,.11.68c-.38.53-.75,1.06-1.11,1.6A.46.46,0,0,1,25.09,50.23Zm93.61-7.81a.47.47,0,0,1-.35-.15c-.45-.47-.9-.94-1.36-1.4a.48.48,0,0,1,0-.68.49.49,0,0,1,.69,0l1.38,1.41a.49.49,0,0,1,0,.69A.46.46,0,0,1,118.7,42.42ZM32.54,41.14A.49.49,0,0,1,32.2,41a.49.49,0,0,1,0-.69c.46-.47.94-.92,1.42-1.38a.48.48,0,0,1,.68,0,.47.47,0,0,1,0,.68c-.47.45-.94.9-1.4,1.36A.49.49,0,0,1,32.54,41.14Zm77.31-6.46a.49.49,0,0,1-.28-.09c-.53-.37-1.06-.74-1.6-1.1a.49.49,0,0,1-.14-.68.49.49,0,0,1,.68-.13c.55.36,1.09.74,1.63,1.12a.49.49,0,0,1-.29.88Zm-68.24-1a.49.49,0,0,1-.27-.89c.55-.37,1.1-.73,1.66-1.08a.49.49,0,0,1,.67.16.49.49,0,0,1-.15.67c-.55.34-1.1.69-1.64,1A.44.44,0,0,1,41.61,33.67Zm58.05-4.86a.48.48,0,0,1-.2,0c-.59-.27-1.19-.52-1.79-.77a.49.49,0,0,1-.26-.64A.49.49,0,0,1,98,27.1c.61.25,1.22.51,1.82.79a.48.48,0,0,1,.24.64A.47.47,0,0,1,99.66,28.81ZM52,28.11a.48.48,0,0,1-.18-.93c.6-.26,1.21-.5,1.83-.73a.49.49,0,0,1,.63.28.5.5,0,0,1-.29.63c-.6.22-1.2.46-1.8.71A.41.41,0,0,1,52,28.11Zm36.56-3.05-.11,0c-.63-.14-1.27-.28-1.91-.4a.49.49,0,0,1,.19-1c.65.13,1.29.27,1.93.42a.48.48,0,0,1,.37.58A.49.49,0,0,1,88.52,25.06ZM63.2,24.69a.49.49,0,0,1-.48-.39.5.5,0,0,1,.39-.58l1.94-.35a.47.47,0,0,1,.56.4.5.5,0,0,1-.4.56c-.64.1-1.28.22-1.92.35Zm13.66-1.14h0l-1.84,0h-.1a.49.49,0,0,1,0-1H75c.63,0,1.25,0,1.87,0a.49.49,0,0,1,.47.5A.47.47,0,0,1,76.86,23.55Z"/><g class="cls-8"><path class="cls-9" d="M53.33,113.19s5.19-4.1,21.08-.86l-7.73,10.28Z"/><path class="cls-10" d="M68.68,104l1.53,12.15S69,123,65.1,123.42s-6.65-6.33-6.65-6.33L57.4,103Z"/><path class="cls-11" d="M68.68,104,57.4,103l.6,8.09a11.4,11.4,0,0,0,6.4,2.72,21.46,21.46,0,0,0,5.49-.21Z"/><g id="head"><polygon class="cls-1" points="87.63 71.42 97.87 73.83 96.66 84.28 83.49 89.05 87.63 71.42"/><polygon class="cls-10" points="87.63 71.42 97.87 73.83 96.66 84.28 83.49 89.05 87.63 71.42"/><path class="cls-11" d="M85.75,79.43l-2.26,9.62,13.17-4.77.58-5Z"/><g id="head-2" data-name="head"><path class="cls-12" d="M72,44.2s-23.09-3.44-28.78,16C37.16,81.05,50.69,89,51.17,90.47c2.2,6.89,3.45,12.28,3.45,12.28s13.46,7.74,24.26,7.12c4.18-.24,9-12.54,9-12.54s6-18,5.9-27.23C93.62,57.54,88,46.32,72,44.2"/><path class="cls-13" d="M90.24,55.41c-1.71,8.48-6.91,31.23-15.44,35.17-5.82,2.69-15.41,3-22.75,2.73,1.65,5.47,2.57,9.44,2.57,9.44s13.46,7.74,24.26,7.12c4.18-.24,9-12.54,9-12.54s6-18,5.9-27.23A30.58,30.58,0,0,0,90.24,55.41Z"/><path class="cls-14" d="M90.68,56.67c-5,3.27-3.41,9.43-1.77,14.12.1.31.6.18.49-.13-1.55-4.44-3.22-10.42,1.54-13.55.27-.18,0-.62-.26-.44Z"/><path class="cls-14" d="M50.59,54.84c7.35,1.42,1.45,10.82.73,15-.06.32.43.46.49.14.74-4.25,6.7-14.08-1.09-15.59-.32-.06-.45.43-.13.49Z"/><path class="cls-14" d="M83.26,48.05c.67,4,1.2,10-.89,13.62-1.4,2.44-4,1.49-6.27,1.26s-4.29-.37-6.45-.43c-2-.07-3.91,0-5.87,0-3,.09-5.79-.28-5.82-4.13,0-4.09,1.43-8,3.17-11.67.14-.3-.3-.56-.44-.26-1.85,3.88-4,9-3.13,13.36.93,4.92,7.37,3.11,10.92,3.18a97.49,97.49,0,0,1,10,.73c1.34.16,2.72.43,3.74-.63,1.4-1.42,1.62-4.47,1.85-6.28a30.11,30.11,0,0,0-.27-8.89c-.06-.32-.55-.18-.49.14Z"/><path class="cls-14" d="M70.37,62.78l-.65,6.84c0,.33.48.32.51,0l.64-6.84c0-.33-.47-.32-.5,0Z"/></g><path class="cls-10" d="M49.58,68.75l-9.79,1L39.5,80.28,51,86.77A14,14,0,0,0,53.64,76,13.51,13.51,0,0,0,49.58,68.75Z"/><path class="cls-11" d="M53.77,77.2c-3.37-.48-10.59-1.48-10.59-1.5L39.5,80.28,51,86.77A14.32,14.32,0,0,0,53.77,77.2Z"/><path class="cls-15" d="M39.86,69.84l-.34,10.48s3.7-2.63,3.75-5.29S39.86,69.84,39.86,69.84Z"/><path class="cls-15" d="M79.68,70.82c-6.71-.36-13.68-4.64-17.45-3-7.24,3-4,23.07-3.48,25.57S71,105.66,78.59,106.19c6.6.46,8.29-9,9.28-10.81s6.56-22.78,4.9-25C90.47,67.34,86.39,71.18,79.68,70.82Z"/><path class="cls-10" d="M92.77,70.39c-2.3-3-6.38.79-13.09.43s-13.68-4.64-17.45-3c-2.44,1-3.68,4-4.25,7.56,5.23-.23,15.45-.31,22.49,2,6.16,2,9.13,5.11,10.5,7.11C92.44,78.29,93.67,71.59,92.77,70.39Z"/><path class="cls-16" d="M71.79,96.1a6.32,6.32,0,0,0,10.64,1.28.78.78,0,0,0-.54-1.31L72.45,95c-1-.12-1,1.41,0,1.53l9.44,1.12-.54-1.3a4.79,4.79,0,0,1-8.24-1C72.68,94.44,71.36,95.22,71.79,96.1Z"/><rect class="cls-16" x="86.42" y="80.45" width="1.3" height="5.93" rx="0.46" transform="translate(4.35 -4.31) rotate(2.91)"/><rect class="cls-16" x="71.35" y="79.68" width="1.3" height="5.93" rx="0.46" transform="translate(4.29 -3.55) rotate(2.91)"/></g><path class="cls-17" d="M43.42,59.9S66.66,61,87,51.05L84.4,38.29,40.83,47.14Z"/><path class="cls-18" d="M43.42,59.9S66.66,61,87,51.05L84.4,38.29,40.83,47.14Z"/><path class="cls-19" d="M42.15,53.65s23.24,1.13,43.58-8.85L84.4,38.29,40.83,47.14Z"/><ellipse class="cls-17" cx="62.61" cy="42.72" rx="22.23" ry="3.07" transform="translate(-7.25 13.32) rotate(-11.48)"/><ellipse class="cls-20" cx="58.49" cy="43.97" rx="15.52" ry="2.14" transform="translate(-7.58 12.52) rotate(-11.48)"/><path class="cls-3" d="M67.08,51.57a.4.4,0,0,1-.09-.79A85.4,85.4,0,0,0,82.22,46a.4.4,0,0,1,.31.73,86.71,86.71,0,0,1-15.37,4.86Z"/><polygon class="cls-17" points="68.18 121.82 66.22 116.16 53.33 113.19 53.33 118.88 68.18 121.82"/><polygon class="cls-17" points="64.84 121.82 64.84 116.2 74.41 112.33 75.53 118.58 64.84 121.82"/><path class="cls-17" d="M53.33,118.88l-34,9v17l93.42-.7-2.45-10.54a4.87,4.87,0,0,0-2.75-3.35l-32-11.7-10.69,2.28Z"/><ellipse class="cls-9" cx="19.3" cy="138.85" rx="4.68" ry="11.03"/><ellipse class="cls-17" cx="18.52" cy="139.64" rx="4.68" ry="11.03"/><polygon class="cls-18" points="68.18 121.82 66.22 116.16 53.33 113.19 53.33 118.88 68.18 121.82"/><polygon class="cls-18" points="64.84 121.82 64.84 116.2 74.41 112.33 75.53 118.58 64.84 121.82"/><path class="cls-18" d="M53.33,118.88l-34,9v17l93.42-.7-2.45-10.54a4.87,4.87,0,0,0-2.75-3.35l-32-11.7-10.69,2.28Z"/><ellipse class="cls-18" cx="18.52" cy="139.64" rx="4.68" ry="11.03"/><circle class="cls-3" cx="65.91" cy="128.52" r="1.5"/><circle class="cls-3" cx="73.26" cy="135.87" r="1.5"/><circle class="cls-3" cx="81.64" cy="144.25" r="1.5"/><polygon class="cls-9" points="66.85 121.64 91.43 146.82 68.57 121.1 66.85 121.64"/><polygon class="cls-9" points="64.84 121.82 75.53 118.58 64.84 122.37 53.33 118.88 64.84 121.82"/><polygon class="cls-9" points="65.4 115.97 64.84 121.82 63.87 121.57 65.4 115.97"/><g id="arm"><path class="cls-12" d="M97.46,138.48s23.39,3,29.84,4.66,19.14,6.4,19.14,6.4l-7.25,15.25s-18.78-2.53-26.68-5.19-22.93-8.87-22.93-8.87-4.4-4,.3-9.74C93.4,136.72,97.46,138.48,97.46,138.48Z"/><path class="cls-13" d="M146.44,149.54s-12.69-4.75-19.14-6.4-29.84-4.66-29.84-4.66-4.06-1.76-7.58,2.51a11.34,11.34,0,0,0-1.44,2.25,6.35,6.35,0,0,0,.76.21c9.09,1.76,30.94,2.06,35.33,4,7.14,3.16,12.51,9.2,16.06,14.38Z"/><path class="cls-21" d="M96.11,153.38a14.07,14.07,0,0,1,1.08-6l2.84.94s-.74,4.68-.2,6.5Z"/><path class="cls-14" d="M146.44,149.54c.95.44,0,4.45-1.92,8.57s-4.24,7.09-5.18,6.65-.16-4.13,1.76-8.25S145.5,149.1,146.44,149.54Z"/><path class="cls-14" d="M90.8,140.62a128.46,128.46,0,0,1,52.55,11c.3.13.56-.31.26-.44a129.21,129.21,0,0,0-52.81-11,.26.26,0,0,0,0,.51Z"/></g><g id="left_arm" data-name="left arm"><g id="elbow_circle" data-name="elbow circle"><circle class="cls-21" cx="146.38" cy="156.22" r="6.93"/><path class="cls-11" d="M143.26,162.41a6.91,6.91,0,0,0,2.22.66,5.91,5.91,0,0,1-3-3.72c-.76-2.68,3.12-6.89,6.12-9.65a6.91,6.91,0,0,0-5.37,12.71Z"/><path class="cls-22" d="M140.64,160.42a5.47,5.47,0,0,0,4.67-6.35c-.06-.32-.55-.18-.49.14a5,5,0,0,1-4.18,5.7c-.32,0-.32.55,0,.51Z"/></g><g id="hand"><ellipse class="cls-21" cx="120.37" cy="102.8" rx="6.47" ry="6.59" transform="translate(-21.18 173.67) rotate(-67.09)"/><path class="cls-11" d="M126.53,100.71a14.09,14.09,0,0,0-6.34,1.67,9.94,9.94,0,0,0-4.24,5.14,6.6,6.6,0,0,0,2.26,1.35l5.36-.4A6.34,6.34,0,0,0,126.53,100.71Z"/><path class="cls-22" d="M121.64,104.6a5,5,0,0,1-1.13-6.43.26.26,0,0,0-.44-.26,5.53,5.53,0,0,0,1.21,7c.25.21.61-.15.36-.36Z"/><path class="cls-12" d="M116.76,101.74s-4.88-1.33-7.58-4.6a29.49,29.49,0,0,1-4.33-8l-5.86,5s3.44,5.5,6.19,7.86,9.89,3.13,9.89,3.13Z"/><path class="cls-13" d="M104.85,89.16l-4.11,3.48c1.27,2,4.16,6.43,6.16,8.37,1.85,1.81,6.83,2.89,8.61,3.23l1.16-2.31-.22-.29c-1.11-.35-5-1.72-7.27-4.5A29.49,29.49,0,0,1,104.85,89.16Z"/><path class="cls-23" d="M92.15,113.65c-1-.54-.05-4,2-7.74s4.56-6.34,5.52-5.8.06,4-2,7.74S93.12,114.19,92.15,113.65Z"/><path class="cls-24" d="M93,111.25c-.67-.37,0-2.76,1.4-5.34s3.14-4.38,3.81-4,0,2.77-1.4,5.35S93.7,111.62,93,111.25Z"/><path class="cls-4" d="M92.3,113.81c1.16,0,3.36-2.51,5.28-6a24.94,24.94,0,0,0,1.91-4.25c.32-1,.62-2.76.21-3.5a7.84,7.84,0,0,1,3.53,2.72,14.51,14.51,0,0,1-.65,2.69,23,23,0,0,1-1.76,4A18.58,18.58,0,0,1,96.25,115,6.17,6.17,0,0,1,92.3,113.81Z"/><path class="cls-23" d="M108,64.59c-1.09-.14-2.43,3.18-3,7.43s-.11,7.8,1,7.94,2.43-3.18,3-7.43S109.05,64.73,108,64.59Z"/><path class="cls-24" d="M107.45,66c-.85-.11-1.88,2.46-2.3,5.73s-.09,6,.76,6.13,1.87-2.45,2.3-5.73S108.29,66.07,107.45,66Z"/><path class="cls-4" d="M108,64.59c.93.71,1.51,4,1,7.89A24.57,24.57,0,0,1,108,77c-.32,1-.94,2.54-1.7,2.9a7.3,7.3,0,0,0,4.28-.11,14.79,14.79,0,0,0,1-2.48,22.87,22.87,0,0,0,.94-4.24,18.6,18.6,0,0,0-.34-7.12A7.13,7.13,0,0,0,108,64.59Z"/><path class="cls-3" d="M104.72,112.46A40.61,40.61,0,0,0,113.1,102c7.81-13.93,5.43-24.27,4.4-29s-1.3-5.8-5.3-7.07v0a19.82,19.82,0,0,1,.28,7.25,23.7,23.7,0,0,1-1,4.24,15.68,15.68,0,0,1-1,2.35,3.09,3.09,0,0,1,1.21.17,2.64,2.64,0,0,1,1.62,3.13c-.46,1.39-1.88,6.33-1.88,6.33s-3.62,11-4.08,12.45a2.64,2.64,0,0,1-3.16,1.54,2.74,2.74,0,0,1-1.08-.58,15.3,15.3,0,0,1-.61,2.47,23,23,0,0,1-1.77,4A19.55,19.55,0,0,1,96.26,115v0C100.22,116.35,101.2,115.51,104.72,112.46Z"/></g><g id="forearm"><path class="cls-12" d="M155.13,145.72s-.92,3.72-7.87,7-11.84,2.79-11.84,2.79S127.52,142.3,124,132.1s-7.53-22.52-7.53-22.52.19-2.92,4.2-4.53c4.89-2,8.11.13,8.11.13S139,119,143.2,125.24,155.13,145.72,155.13,145.72Z"/><path class="cls-13" d="M146.05,134.94c2,8.9,1,15.23.16,18.26l1-.47c7-3.29,7.87-7,7.87-7s-7.73-14.19-11.93-20.48-14.41-20.06-14.41-20.06a6.84,6.84,0,0,0-1.68-.66C127.42,104.9,143.87,125.24,146.05,134.94Z"/><path class="cls-14" d="M150.17,150.58a350.86,350.86,0,0,1-26-45.87c-.14-.3-.57,0-.44.25a350.21,350.21,0,0,0,26,45.87c.19.27.63,0,.44-.25Z"/></g><path class="cls-12" d="M120.15,98.14s-.87-6.66-4.67-11.27a48,48,0,0,0-9.7-8.35l7.57-5.64s6.6,6.32,9.2,10.66,1.8,14,1.8,14Z"/><path class="cls-13" d="M120.65,85.36c-2.15-3.16-7.27-8.27-9.74-10.67l-5.13,3.83a48,48,0,0,1,9.7,8.35c3.8,4.61,4.67,11.27,4.67,11.27l3.2-.45C123.25,95.61,122.77,88.48,120.65,85.36Z"/><path class="cls-12" d="M120,98.8a24.65,24.65,0,0,0-5.75-9A44.46,44.46,0,0,0,105,83.7l5-5.52s6.42,4.67,9.28,8.07,4.31,11.29,4.31,11.29Z"/><path class="cls-13" d="M118.1,88a87.88,87.88,0,0,0-9.7-8L105,83.7a44.46,44.46,0,0,1,9.26,6.07,24.65,24.65,0,0,1,5.75,9l2.44-.85C121.92,96,120.3,90.33,118.1,88Z"/><path class="cls-12" d="M117.51,100a18,18,0,0,0-5.67-6.79,36.69,36.69,0,0,0-8.71-3.82l4.31-5.34s6.06,3,8.82,5.49,4.48,8.89,4.48,8.89Z"/><path class="cls-13" d="M105.93,85.93l-2.8,3.46a36.69,36.69,0,0,1,8.71,3.82,18,18,0,0,1,5.67,6.79l2.07-1c-.61-1.67-2.32-6-4.37-7.63A68.58,68.58,0,0,0,105.93,85.93Z"/></g></g></g></g></g></svg>